<svg width="552" height="426" viewBox="0 0 552 426" fill="none" xmlns="http://www.w3.org/2000/svg">
<path d="M505.89 305.225L523.143 303.256C526.882 294.885 528.534 285.722 527.956 276.562C518.577 289.871 498.736 289.657 485.551 299.151C481.461 302.144 478.093 306.024 475.696 310.505C473.299 314.986 471.935 319.952 471.705 325.036L466.007 336.024C474.122 336.918 482.332 336.031 490.073 333.424C497.813 330.817 504.901 326.552 510.846 320.923C514.15 317.732 517.042 314.135 519.453 310.217C512.663 308.148 505.89 305.225 505.89 305.225Z" fill="#F2F2F2"/>
<path d="M492.753 280.218L507.323 270.712C506.96 261.541 504.378 252.598 499.802 244.66C497.305 260.781 479.451 269.496 471.857 283.911C469.523 288.425 468.228 293.41 468.069 298.496C467.909 303.583 468.889 308.64 470.935 313.294L470.705 325.686C478.364 322.844 485.319 318.365 491.092 312.557C496.865 306.75 501.319 299.751 504.146 292.045C505.689 287.705 506.683 283.188 507.105 278.598C500.111 279.794 492.753 280.218 492.753 280.218Z" fill="#F2F2F2"/>
<path d="M429.5 396.56C458.376 396.56 481.784 373.001 481.784 343.939C481.784 314.878 458.376 291.319 429.5 291.319C400.624 291.319 377.215 314.878 377.215 343.939C377.215 373.001 400.624 396.56 429.5 396.56Z" fill="white"/>
<path d="M429.5 397.202C419.033 397.202 408.801 394.079 400.098 388.226C391.395 382.373 384.611 374.055 380.606 364.323C376.6 354.59 375.552 343.881 377.594 333.549C379.636 323.217 384.676 313.727 392.078 306.278C399.479 298.829 408.909 293.756 419.175 291.701C429.441 289.646 440.082 290.7 449.752 294.732C459.423 298.763 467.688 305.59 473.503 314.348C479.319 323.107 482.423 333.405 482.423 343.939C482.407 358.061 476.826 371.599 466.904 381.584C456.983 391.569 443.531 397.186 429.5 397.202ZM429.5 291.962C419.285 291.962 409.3 295.011 400.807 300.722C392.314 306.433 385.694 314.551 381.785 324.049C377.876 333.547 376.853 343.998 378.846 354.08C380.839 364.163 385.758 373.424 392.981 380.694C400.204 387.963 409.406 392.913 419.424 394.919C429.443 396.924 439.827 395.895 449.264 391.961C458.701 388.027 466.767 381.365 472.442 372.817C478.117 364.269 481.146 354.22 481.146 343.939C481.131 330.159 475.684 316.947 466.002 307.203C456.32 297.459 443.193 291.978 429.5 291.962Z" fill="white"/>
<path d="M425.585 364.97C425.473 364.97 425.362 364.966 425.251 364.96C424.266 364.912 423.303 364.651 422.428 364.193C421.553 363.736 420.787 363.093 420.182 362.31L411.444 351.005C410.893 350.291 410.486 349.475 410.248 348.603C410.009 347.731 409.944 346.821 410.055 345.924C410.166 345.026 410.452 344.16 410.896 343.374C411.341 342.588 411.934 341.898 412.643 341.343L412.958 341.096C413.667 340.541 414.478 340.131 415.344 339.891C416.211 339.651 417.116 339.585 418.008 339.697C418.899 339.809 419.76 340.097 420.542 340.545C421.323 340.992 422.009 341.59 422.56 342.304C423.001 342.874 423.56 343.342 424.197 343.675C424.835 344.008 425.536 344.199 426.254 344.234C426.971 344.269 427.687 344.148 428.354 343.879C429.021 343.609 429.622 343.199 430.116 342.674L447.857 323.824C449.106 322.501 450.825 321.729 452.638 321.68C454.452 321.63 456.21 322.306 457.529 323.56L457.82 323.839C458.472 324.461 458.996 325.206 459.362 326.031C459.729 326.857 459.929 327.747 459.954 328.651C459.978 329.555 459.825 330.455 459.504 331.299C459.182 332.144 458.699 332.916 458.081 333.572L430.549 362.819C429.91 363.498 429.141 364.039 428.287 364.409C427.434 364.779 426.514 364.97 425.585 364.97Z" fill="#240046"/>
<path d="M402.149 411.185L394.897 411.997L388.027 383.684L398.728 382.484L402.149 411.185Z" fill="#A0616A"/>
<path d="M449.921 283.896C449.695 283.67 449.451 283.451 449.208 283.242C447.337 281.68 445.382 280.222 443.351 278.877C441.054 277.336 438.468 275.764 435.544 274.14C434.129 273.353 432.633 272.55 431.057 271.731C430.267 271.32 429.455 270.906 428.62 270.49C428.585 270.469 428.548 270.45 428.51 270.432L428.269 270.309L410.672 284.928L409.421 285.916L412.663 289.939C412.663 289.939 412.381 293.138 412.388 293.139L409.17 301.221L409.134 301.237L397.67 306.503L385.855 311.931L379.51 314.849C378.039 315.523 376.715 316.486 375.617 317.68C374.519 318.874 373.668 320.277 373.113 321.805C372.53 323.393 372.266 325.081 372.338 326.772C372.409 328.464 372.815 330.123 373.53 331.655C373.672 331.968 373.832 332.28 374.001 332.581L376.638 349.266C378.213 359.246 381.275 368.929 385.722 377.989L389.749 393.608L390.361 393.298L399.469 388.707L401.875 387.497L402.33 377.002C402.381 375.806 402.389 374.604 402.346 373.403C402.284 371.439 402.097 369.48 401.788 367.54L396.565 334.814C397.492 334.434 398.406 334.052 399.308 333.668C403.487 331.908 407.444 330.129 411.178 328.331C423.323 322.489 433.217 316.425 441.301 309.856C443.572 308.013 445.703 306.127 447.693 304.198C448.424 303.493 449.136 302.781 449.829 302.062C449.993 301.896 450.154 301.732 450.312 301.564C451.736 300.061 452.762 298.222 453.297 296.217C453.832 294.211 453.858 292.102 453.374 290.083C452.832 287.732 451.634 285.585 449.921 283.896Z" fill="#2F2E41"/>
<path d="M401.558 406.228L393.709 407.101L392.477 407.237L393.279 411.928L384.157 420.897C383.705 421.34 383.407 421.916 383.304 422.542C383.201 423.168 383.301 423.811 383.587 424.376C383.873 424.942 384.331 425.4 384.895 425.684C385.458 425.969 386.098 426.065 386.719 425.957L399.673 423.724L401.114 418.699L402.776 423.189L407.656 422.349L403.467 406.018L401.558 406.228Z" fill="#2F2E41"/>
<path d="M409.028 243.782L415.749 236.608L406.268 215.731L404.858 208.398C404.675 207.445 404.246 206.558 403.615 205.824C402.985 205.09 402.173 204.536 401.263 204.216C400.353 203.897 399.375 203.823 398.427 204.003C397.48 204.183 396.596 204.61 395.864 205.242C394.779 206.178 394.098 207.501 393.964 208.933C393.83 210.364 394.255 211.792 395.147 212.915L400.382 219.501L409.028 243.782Z" fill="#A0616A"/>
<path d="M415.749 233.396L408.089 241.105L409.555 252.377C410.022 253.848 410.858 255.173 411.983 256.224C413.108 257.274 414.484 258.014 415.977 258.371C417.818 258.812 419.75 258.652 421.494 257.913C423.239 257.175 424.704 255.896 425.677 254.263L442.906 224.542C444.127 222.494 444.504 220.046 443.957 217.722C443.409 215.399 441.98 213.382 439.975 212.104C438.897 211.417 437.687 210.966 436.424 210.781C435.161 210.595 433.873 210.679 432.645 211.028C431.416 211.376 430.274 211.981 429.293 212.803C428.313 213.625 427.515 214.645 426.952 215.798L416.435 238.35L415.749 233.396Z" fill="#E6E6E6"/>
<path d="M408.033 347.154C407.637 347.56 407.24 347.96 406.838 348.362C406.04 349.165 405.23 349.96 404.417 350.746C404.008 351.14 403.595 351.534 403.186 351.923L403.189 351.937L403.162 351.949L403.154 351.956L402.472 352.31L400.776 349.796L399.994 348.639L398.889 346.998L396.864 343.999L386.202 328.204L395.764 323.236L396.517 324.711L396.521 324.71L396.894 325.441L403.887 339.077L405.315 341.865L405.359 341.949L406.217 343.614L406.958 345.057L407.783 346.669L408.033 347.154Z" fill="#A0616A"/>
<path d="M406.057 342.035L399.401 346.312L398.356 346.982L401.136 350.833L396.896 362.937C396.686 363.535 396.671 364.185 396.855 364.792C397.038 365.399 397.409 365.931 397.914 366.311C398.419 366.691 399.032 366.898 399.662 366.902C400.293 366.906 400.908 366.707 401.418 366.335L412.055 358.566L411.139 353.418L414.603 356.705L418.61 353.779L407.677 340.997L406.057 342.035Z" fill="#2F2E41"/>
<path d="M174.946 105.187L180.043 88.4814C173.91 81.6885 166.223 76.505 157.648 73.3809C166.026 87.3493 157.908 105.571 161.291 121.528C162.383 126.496 164.573 131.154 167.698 135.155C170.823 139.156 174.802 142.398 179.341 144.641L187.075 154.286C191.13 147.156 193.601 139.226 194.317 131.043C195.034 122.86 193.979 114.617 191.226 106.884C189.638 102.56 187.516 98.4557 184.91 94.6663C180.314 100.104 174.946 105.187 174.946 105.187Z" fill="#F2F2F2"/>
<path d="M146.92 107.322L144.079 90.0816C135.58 86.7543 126.403 85.5653 117.343 86.6179C131.032 95.3599 131.84 115.313 141.939 128.077C145.119 132.033 149.143 135.219 153.713 137.397C158.282 139.576 163.281 140.692 168.337 140.662L179.534 145.823C180.004 137.622 178.701 129.415 175.716 121.769C172.731 114.123 168.134 107.219 162.243 101.533C158.907 98.3762 155.188 95.6547 151.176 93.4329C149.472 100.363 146.92 107.322 146.92 107.322Z" fill="#F2F2F2"/>
<path d="M244.471 56.6895L249.706 50.1039C250.598 48.981 251.022 47.5531 250.889 46.1214C250.755 44.6897 250.074 43.3663 248.989 42.4305C248.257 41.799 247.373 41.3719 246.425 41.1919C245.478 41.0119 244.5 41.0853 243.59 41.4048C242.679 41.7243 241.868 42.2787 241.237 43.0125C240.606 43.7463 240.178 44.634 239.995 45.5867L238.584 52.9197L233.233 67.4603L239.655 70.6916L244.471 56.6895Z" fill="#FFB8B8"/>
<path d="M228.417 75.5384L217.901 52.9866C217.338 51.8338 216.54 50.8132 215.559 49.9913C214.578 49.1694 213.436 48.5645 212.208 48.2161C210.979 47.8676 209.692 47.7835 208.429 47.969C207.166 48.1545 205.956 48.6056 204.877 49.2929C202.873 50.5708 201.444 52.587 200.896 54.911C200.348 57.2349 200.725 59.6822 201.946 61.7303L219.175 91.4518C220.149 93.0848 221.614 94.3633 223.358 95.1019C225.102 95.8406 227.035 96.001 228.875 95.5599C230.368 95.2021 231.744 94.4623 232.869 93.412C233.994 92.3617 234.831 91.0367 235.297 89.5653L241.795 69.0759L233.233 64.7675L228.417 75.5384Z" fill="#2F2E41"/>
<path d="M248.261 68.2804L241.371 67.699C240.29 67.6065 239.289 67.0861 238.588 66.2519C237.888 65.4177 237.545 64.3379 237.634 63.2493L240.285 31.4354C240.377 30.347 240.894 29.3398 241.723 28.6347C242.551 27.9296 243.624 27.5841 244.706 27.6742L251.595 28.2556C252.677 28.3481 253.678 28.8685 254.378 29.7027C255.079 30.5369 255.422 31.6167 255.333 32.7053L252.682 64.5192C252.59 65.6076 252.073 66.6148 251.244 67.3199C250.415 68.025 249.342 68.3705 248.261 68.2804Z" fill="white"/>
<path d="M243.764 29.2288C243.181 29.1802 242.603 29.3664 242.157 29.7464C241.71 30.1264 241.431 30.6691 241.382 31.2556L238.731 63.0695C238.683 63.6561 238.868 64.238 239.245 64.6876C239.623 65.1371 240.162 65.4175 240.745 65.4674L247.635 66.0488C248.217 66.0973 248.796 65.9112 249.242 65.5312C249.689 65.1512 249.968 64.6084 250.017 64.0219L252.668 32.208C252.716 31.6214 252.531 31.0395 252.153 30.59C251.776 30.1405 251.237 29.86 250.654 29.8102L243.764 29.2288Z" fill="#240046"/>
<path d="M229.67 96.9155H201.007V125.762H229.67V96.9155Z" fill="#FFB8B8"/>
<path d="M235.244 94.4484C236.092 94.4484 236.78 93.7565 236.78 92.903C236.78 92.0496 236.092 91.3577 235.244 91.3577C234.396 91.3577 233.708 92.0496 233.708 92.903C233.708 93.7565 234.396 94.4484 235.244 94.4484Z" fill="#2F2E41"/>
<path d="M260.828 218.765L268.473 218.764L272.11 189.088L260.827 189.089L260.828 218.765Z" fill="#FFB6B6"/>
<path d="M258.933 214.969L271.017 214.243V219.454L282.507 227.44C283.074 227.834 283.502 228.401 283.726 229.057C283.951 229.713 283.962 230.424 283.757 231.087C283.552 231.75 283.141 232.329 282.586 232.74C282.03 233.152 281.359 233.373 280.669 233.373H266.281L263.802 228.219L262.833 233.373H257.409L258.933 214.969Z" fill="#2F2E41"/>
<path d="M204.093 239.949L210.648 243.908L228.941 220.347L219.268 214.504L204.093 239.949Z" fill="#FFB6B6"/>
<path d="M204.409 235.713L215.141 241.35L212.477 245.818L218.244 258.616C218.529 259.248 218.606 259.955 218.463 260.634C218.32 261.313 217.966 261.928 217.451 262.39C216.936 262.852 216.288 263.136 215.601 263.201C214.915 263.266 214.226 263.108 213.634 262.751L201.298 255.299L201.808 249.595L198.342 253.513L193.691 250.704L204.409 235.713Z" fill="#2F2E41"/>
<path d="M50.3761 237.366C50.3007 237.366 50.2252 237.365 50.149 237.362C49.2604 237.329 48.3928 237.081 47.6198 236.639C46.8469 236.196 46.1916 235.573 45.7097 234.821C42.1 229.391 37.6702 224.562 32.5803 220.507C29.4991 218.029 26.2792 215.724 23.1656 213.495C15.1328 207.747 7.56797 202.333 3.3687 194.852C-5.78696 178.54 4.99518 155.82 20.3984 145.631C37.6754 134.203 60.4004 132.41 82.3844 132.175C84.6691 132.151 86.9552 132.139 89.2427 132.139C128.853 132.154 168.38 135.792 207.336 143.007C220.29 145.412 233.849 148.358 244.746 155.509C255.577 162.617 262.161 173.812 261.519 184.028C260.581 198.943 244.871 210.087 230.566 213C216.932 215.775 202.767 213.9 187.772 211.914C184.461 211.476 181.038 211.023 177.653 210.629C140.866 206.349 71.7598 219.54 68.8361 220.103L65.9355 220.662L54.681 235.238C54.1747 235.902 53.5229 236.44 52.7761 236.809C52.0294 237.179 51.2081 237.369 50.3761 237.366Z" fill="#240046"/>
<path d="M214.193 164.608H58.7068C57.8095 164.608 56.949 164.249 56.3146 163.611C55.6802 162.972 55.3237 162.106 55.3237 161.203C55.3237 160.3 55.6802 159.434 56.3146 158.796C56.949 158.157 57.8095 157.799 58.7068 157.799H214.193C215.09 157.799 215.95 158.157 216.585 158.796C217.219 159.434 217.576 160.3 217.576 161.203C217.576 162.106 217.219 162.972 216.585 163.611C215.95 164.249 215.09 164.608 214.193 164.608Z" fill="white"/>
<path d="M214.192 185.507H58.7065C58.262 185.508 57.8216 185.421 57.4107 185.25C56.9997 185.08 56.6261 184.829 56.3113 184.513C55.9965 184.197 55.7467 183.822 55.5761 183.409C55.4054 182.996 55.3174 182.553 55.3169 182.106C55.3164 181.658 55.4036 181.215 55.5734 180.802C55.7431 180.388 55.9922 180.013 56.3063 179.696C56.6205 179.38 56.9935 179.129 57.4041 178.957C57.8148 178.786 58.2549 178.698 58.6994 178.698H214.192C215.089 178.699 215.948 179.058 216.581 179.696C217.215 180.335 217.571 181.2 217.571 182.102C217.571 183.004 217.215 183.87 216.581 184.508C215.948 185.146 215.089 185.506 214.192 185.507Z" fill="white"/>
<path d="M76.8261 206.405H58.7065C57.8101 206.404 56.9508 206.045 56.3173 205.406C55.6839 204.768 55.3281 203.903 55.3281 203C55.3281 202.098 55.6839 201.233 56.3173 200.595C56.9508 199.956 57.8101 199.597 58.7065 199.596H76.8261C77.7225 199.597 78.5818 199.956 79.2152 200.595C79.8487 201.233 80.2045 202.098 80.2045 203C80.2045 203.903 79.8487 204.768 79.2152 205.406C78.5818 206.045 77.7225 206.404 76.8261 206.405Z" fill="white"/>
<path d="M230.684 117.504L200.039 113.823L200.921 119.671C200.921 119.671 180.169 136.499 194.375 155.067L201.233 161.798L200.602 164.962H205.006L205.479 168.778L224.424 184.561L225.512 187.791H228.632L227.107 191.462L213.042 224.386L224.695 229.854L246.157 188.446L240.66 175.966L220.883 150.774L251.514 162.951L252.036 165.624L254.852 165.087L254.308 169.021L260.285 199.974L272.946 198.283L271.644 159.769C271.547 157.664 270.897 155.622 269.761 153.851C268.626 152.08 267.045 150.643 265.179 149.686C258.689 146.331 234.715 137.01 234.715 137.01L230.684 117.504Z" fill="#2F2E41"/>
<path d="M218.409 50.0392L212.64 42.5757L204.41 42.2166L203.589 49.2361L199.511 51.1285C195.439 66.6966 194.81 82.9742 197.669 98.8135C198.215 99.3313 198.615 99.9866 198.825 100.712C199.036 101.437 199.051 102.205 198.869 102.938L198.604 103.999L198.629 104.037C199.496 105.415 199.791 107.081 199.448 108.676L191.994 122.007C207.825 128.501 219.43 116.391 230.181 100.521L236.835 77.3407L218.409 50.0392Z" fill="white"/>
<path d="M235.754 92.9541L237.307 77.315L216.68 46.584L215.832 47.1602L236.252 77.5835L234.735 92.8513L235.754 92.9541Z" fill="#2F2E41"/>
<path d="M213.042 41.9629C221.446 41.9629 228.259 35.1066 228.259 26.6489C228.259 18.1913 221.446 11.335 213.042 11.335C204.639 11.335 197.826 18.1913 197.826 26.6489C197.826 35.1066 204.639 41.9629 213.042 41.9629Z" fill="#FFB8B8"/>
<path d="M214.999 7.97215L213.09 8.03312L212.441 8.05383L205.175 8.28587C198.734 8.49154 193.699 14.5699 193.929 21.8623C189.224 26.9288 190.877 33.0349 194.941 39.5356C201.928 40.1847 208.793 41.7996 215.342 44.3348L216.134 40.3645L218.107 45.4969C219.74 46.23 221.362 47.0368 222.973 47.9174C220.852 39.2488 219.818 30.5658 220.872 23.7615L224.199 23.6552L224.084 19.9904L225.329 23.6192L231.362 23.4265C231.295 21.3305 230.82 19.2681 229.962 17.3571C229.104 15.4461 227.88 13.7239 226.361 12.2888C224.841 10.8537 223.056 9.7339 221.107 8.99325C219.157 8.25259 217.082 7.90563 214.999 7.97215Z" fill="#2F2E41"/>
<path d="M201.861 14.4235C205.819 14.4235 209.027 11.1947 209.027 7.21173C209.027 3.2288 205.819 0 201.861 0C197.904 0 194.695 3.2288 194.695 7.21173C194.695 11.1947 197.904 14.4235 201.861 14.4235Z" fill="#2F2E41"/>
<path d="M248.939 64.3985L254.174 57.8129C255.066 56.69 255.491 55.262 255.357 53.8304C255.223 52.3987 254.542 51.0753 253.457 50.1395C252.725 49.508 251.841 49.0809 250.894 48.9009C249.946 48.7209 248.968 48.7943 248.058 49.1138C247.148 49.4333 246.336 49.9876 245.706 50.7215C245.075 51.4553 244.646 52.3429 244.463 53.2956L243.053 60.6287L237.702 75.1693L244.123 78.4006L248.939 64.3985Z" fill="#FFB8B8"/>
<path d="M232.885 83.2477L222.369 60.6959C221.806 59.543 221.008 58.5225 220.027 57.7005C219.046 56.8786 217.905 56.2737 216.676 55.9253C215.448 55.5769 214.16 55.4927 212.897 55.6782C211.634 55.8637 210.424 56.3148 209.346 57.0021C207.341 58.28 205.912 60.2963 205.364 62.6202C204.816 64.9441 205.193 67.3915 206.414 69.4395L223.644 99.161C224.617 100.794 226.082 102.073 227.826 102.811C229.57 103.55 231.503 103.71 233.344 103.269C234.837 102.911 236.212 102.172 237.337 101.121C238.463 100.071 239.299 98.7459 239.766 97.2746L246.263 76.7851L237.701 72.4768L232.885 83.2477Z" fill="#2F2E41"/>
<path d="M454.052 296.949C453.39 298.019 452.713 299.085 452.031 300.14C450.764 302.106 449.464 304.043 448.13 305.95C448.13 305.955 448.125 305.955 448.12 305.96C447.341 306.686 446.482 307.318 445.558 307.843C445.519 307.872 445.475 307.892 445.437 307.916C444.756 308.294 444.032 308.587 443.28 308.787C443.01 308.855 442.734 308.923 442.463 308.991C441.487 309.225 440.52 309.424 439.558 309.599C437.846 309.906 436.154 310.125 434.472 310.261C434.336 310.276 434.201 310.285 434.065 310.295C427.147 310.806 420.412 309.984 413.383 308.636C409.911 307.974 406.368 307.181 402.698 306.359C401.499 306.086 400.295 305.819 399.077 305.551C398.985 305.532 398.888 305.507 398.792 305.488C397.051 305.103 395.282 304.724 393.469 304.349C391.187 303.877 392.356 303.85 389.91 303.417C389.91 303.417 395.554 309.185 396.492 311.686C397.537 314.761 398.363 317.194 396.618 322.259L402.038 332.968L383.195 336.184C372.809 315.703 364.509 302.217 368.217 294.274C368.232 293.904 368.261 293.529 368.309 293.159C368.506 291.478 369.034 289.853 369.861 288.38C370.689 286.906 371.8 285.613 373.129 284.576C374.403 283.574 375.862 282.837 377.422 282.408C378.981 281.978 380.61 281.865 382.213 282.075L385.912 282.557L414.596 281.154L415.723 276.532L415.931 276.454L422.54 274.016L445.398 265.584L445.456 265.565L446.96 265.01L447.138 265.302C447.192 265.39 447.245 265.477 447.293 265.565C448.779 268.246 449.989 271.073 450.905 274.002C452.444 278.786 453.711 283.655 454.7 288.584C454.743 288.798 454.782 288.993 454.816 289.168L454.83 289.222C454.845 289.304 454.855 289.358 454.859 289.373C455.386 291.582 455.019 294.277 454.052 296.949Z" fill="#2F2E41"/>
<path d="M449.229 207.04L449.064 197.819L434.548 196.119L433.025 203.906L417.769 218.335C406.922 231.681 414.804 240.885 415.276 242.254L416.617 259.083L417.461 264.93L414.166 280.932L455.755 289.91C457.086 278.847 455.603 268.568 446.921 260.293L451.308 246.555C453.532 242.968 454.927 238.923 455.388 234.721L455.546 233.284C459.423 221.127 457.126 217.035 449.229 207.04Z" fill="#E6E6E6"/>
<path d="M469.596 178.22C469.605 178.458 469.61 178.697 469.61 178.93C469.606 181.507 468.996 184.047 467.83 186.341C466.664 188.636 464.975 190.62 462.902 192.132C460.828 193.644 458.428 194.64 455.899 195.04C453.369 195.44 450.782 195.232 448.347 194.433L445.364 193.455C445.34 193.445 445.311 193.44 445.287 193.43L440.37 191.815C440.354 191.606 440.357 191.396 440.38 191.187C433.045 188.034 443.184 177.675 445.703 169.895C446.094 168.683 432.63 169.588 433.268 168.552C433.128 168.479 432.987 168.406 432.857 168.333C435.131 164.72 438.494 161.934 442.453 160.382C446.412 158.829 450.761 158.59 454.864 159.701C454.971 159.725 455.082 159.759 455.188 159.789C464.742 160.027 469.76 166.727 469.76 175.427C469.76 176.36 469.705 177.293 469.596 178.22Z" fill="#2F2E41"/>
<path d="M461.319 181.645C460.037 185.596 457.249 188.873 453.567 190.755C449.885 192.638 445.611 192.972 441.685 191.683C441.24 191.537 440.805 191.372 440.38 191.187C436.807 189.646 433.936 186.815 432.332 183.251C430.727 179.687 430.506 175.648 431.711 171.929C432.094 170.744 432.616 169.61 433.268 168.552C435.27 165.29 438.39 162.879 442.039 161.777C445.688 160.674 449.611 160.956 453.067 162.569C456.523 164.183 459.272 167.015 460.793 170.53C462.313 174.046 462.5 178 461.319 181.645Z" fill="#A0616A"/>
<path d="M445.361 193.453C445.335 193.447 445.31 193.438 445.285 193.427L440.37 191.815C440.357 191.603 431.331 197.616 431.356 197.404C431.497 195.779 441.665 187.851 443.185 186.007C444.167 184.83 444.85 183.43 445.175 181.927C445.5 180.425 445.458 178.866 445.051 177.384C444.643 175.902 443.884 174.542 442.839 173.421C441.793 172.3 440.492 171.451 439.048 170.949C439.005 170.938 438.962 170.923 438.921 170.904C437.97 170.57 437.057 170.23 436.201 169.889C435.78 168.122 435.563 168.707 434.548 167.21C434.733 168.572 433.016 169.6 432.991 170.975C432.64 170.814 432.308 170.647 431.988 170.48C431.848 170.403 431.714 170.332 431.58 170.262C430.595 169.801 429.735 169.109 429.071 168.245C431.529 160.645 440.931 154.561 448.483 157.047L451.336 157.979C454.935 159.154 457.925 161.716 459.654 165.103C461.735 166.709 463.396 168.802 464.492 171.2C470.735 183.823 458.677 197.757 445.361 193.453Z" fill="#2F2E41"/>
<path d="M466.008 172.328C469.746 172.328 472.777 169.278 472.777 165.516C472.777 161.753 469.746 158.704 466.008 158.704C462.27 158.704 459.24 161.753 459.24 165.516C459.24 169.278 462.27 172.328 466.008 172.328Z" fill="#2F2E41"/>
<path d="M552 179.41C550.565 185.973 547.694 192.131 543.595 197.435C539.496 202.74 534.272 207.057 528.306 210.073C527.546 210.452 526.774 210.805 525.995 211.133C526.065 207.956 525.158 204.835 523.397 202.197C523.683 204.335 523.717 206.5 523.499 208.647C523.38 209.878 523.177 211.099 522.893 212.302C517.885 213.964 512.626 214.727 507.356 214.557C507.055 212.2 506.209 209.947 504.885 207.979C505.171 210.117 505.206 212.282 504.987 214.428C499.69 213.996 494.515 212.601 489.712 210.311C487.216 209.116 484.765 207.619 483.157 205.357C481.018 202.344 480.661 198.368 481.184 194.706C481.708 191.038 483.016 187.537 483.929 183.952C484.842 180.367 485.359 176.532 484.287 172.992C483.221 169.446 480.227 166.292 476.556 166.015C474.884 165.887 473.205 166.349 471.533 166.195C469.86 166.035 468.048 164.91 468.009 163.221L469.611 160.6C470.288 156.013 472.612 151.464 476.595 149.132C480.572 146.794 486.291 147.295 489.132 150.944C491.525 154.015 491.436 158.281 492.221 162.103C494.047 170.981 501.1 178.125 509.296 181.89C517.499 185.648 526.729 186.438 535.742 186.284C538.832 186.226 541.972 186.059 544.908 185.076C547.851 184.087 550.596 182.185 552 179.41Z" fill="#2F2E41"/>
<path d="M398.494 220.35L395.843 188.536C395.754 187.448 396.097 186.368 396.797 185.533C397.498 184.699 398.499 184.179 399.58 184.086L406.47 183.505C407.551 183.415 408.624 183.76 409.453 184.465C410.282 185.171 410.799 186.178 410.891 187.266L413.542 219.08C413.631 220.169 413.288 221.249 412.587 222.083C411.887 222.917 410.886 223.437 409.804 223.53L402.915 224.111C401.833 224.201 400.76 223.856 399.932 223.151C399.103 222.446 398.586 221.438 398.494 220.35Z" fill="white"/>
<path d="M400.522 185.641C399.939 185.691 399.4 185.971 399.022 186.421C398.645 186.87 398.46 187.452 398.508 188.039L401.159 219.853C401.208 220.439 401.487 220.982 401.934 221.362C402.38 221.742 402.958 221.928 403.541 221.88L410.431 221.298C411.013 221.248 411.553 220.968 411.93 220.518C412.308 220.069 412.493 219.487 412.445 218.9L409.794 187.086C409.744 186.5 409.466 185.957 409.019 185.577C408.572 185.197 407.994 185.011 407.411 185.06L400.522 185.641Z" fill="#240046"/>
<path d="M412.138 231.266L418.845 228.69L414.95 213.688L414.267 206.25C414.178 205.284 413.839 204.358 413.284 203.565C412.728 202.772 411.975 202.14 411.101 201.731C410.226 201.323 409.26 201.152 408.3 201.237C407.339 201.322 406.418 201.659 405.627 202.214C404.456 203.038 403.648 204.287 403.374 205.698C403.1 207.109 403.382 208.573 404.16 209.779L408.722 216.853L412.138 231.266Z" fill="#A0616A"/>
<path d="M419.11 226.01L410.167 229.445L414.618 250.481C414.938 251.992 415.64 253.393 416.656 254.551C417.673 255.708 418.969 256.581 420.419 257.086C422.208 257.708 424.146 257.74 425.955 257.179C427.763 256.618 429.346 255.491 430.476 253.963L450.542 226.103C451.958 224.187 452.574 221.789 452.257 219.422C451.941 217.055 450.717 214.906 448.847 213.435C447.842 212.643 446.682 212.074 445.444 211.764C444.205 211.453 442.915 211.409 441.659 211.633C440.402 211.858 439.206 212.346 438.149 213.066C437.093 213.787 436.198 214.723 435.525 215.814L422.843 237.208L419.11 226.01Z" fill="#E6E6E6"/>
<path opacity="0.2" d="M411.836 237.334L416.357 255.81L417.295 256.959C418.038 257.869 418.987 258.586 420.062 259.05C421.138 259.514 422.308 259.711 423.475 259.625C424.642 259.539 425.772 259.172 426.768 258.555C427.765 257.938 428.6 257.09 429.203 256.081L443.53 232.108L430.613 250.095C429.889 251.104 428.922 251.911 427.803 252.441C426.685 252.971 425.45 253.207 424.216 253.126C422.982 253.046 421.789 252.651 420.748 251.98C419.707 251.308 418.852 250.382 418.263 249.287L411.836 237.334Z" fill="black"/>
</svg>
