<svg width="408" height="104" viewBox="0 0 408 104" fill="none" xmlns="http://www.w3.org/2000/svg">
<path d="M86.57 31.0801C86.5784 29.5711 86.0178 28.1143 85 27.0001C83.78 25.6901 82.5 24.3701 81.12 23.0001C79.74 21.6301 78.12 20.1001 76.71 18.7501C75.5734 17.6807 74.0706 17.0868 72.51 17.0901L31.2 17.0001C29.6437 16.9897 28.1418 17.5725 27 18.6301C25.58 20.0001 24.11 21.3801 22.62 22.8601C21.13 24.3401 20 25.5901 18.71 26.9301C17.6764 28.0342 17.0978 29.4878 17.09 31.0001L17 72.0001C16.9958 73.5588 17.5983 75.0579 18.68 76.1801C19.87 77.4001 21.09 78.6501 22.35 79.9001C23.89 81.4401 25.41 82.9001 26.92 84.3601C28.0486 85.4272 29.5469 86.0151 31.1 86.0001L72.33 86.0901C73.8798 86.0975 75.3743 85.5147 76.51 84.4601C78.03 83.0301 79.56 81.5401 81.11 80.0101C82.3767 78.7501 83.6134 77.4935 84.82 76.2401C85.8947 75.1304 86.4939 73.645 86.49 72.1001L86.57 31.0801ZM40.12 28.7501C40.1227 28.354 40.2819 27.9751 40.5629 27.6959C40.8439 27.4168 41.2239 27.2601 41.62 27.2601H47.29C47.6861 27.2601 48.0661 27.4168 48.3472 27.6959C48.6282 27.9751 48.7874 28.354 48.79 28.7501V40.3301H62.64C63.0494 40.3301 63.4421 40.4921 63.7325 40.7806C64.0229 41.0691 64.1874 41.4608 64.19 41.8701V62.3801C64.19 62.6454 64.0847 62.8997 63.8971 63.0872C63.7096 63.2748 63.4552 63.3801 63.19 63.3801H56.53C56.2648 63.3801 56.0105 63.2748 55.8229 63.0872C55.6354 62.8997 55.53 62.6454 55.53 62.3801V48.9301H48.79V61.9301C48.7874 62.3262 48.6282 62.7052 48.3472 62.9843C48.0661 63.2635 47.6861 63.4201 47.29 63.4201H41.62C41.4235 63.4215 41.2287 63.3839 41.0468 63.3096C40.8648 63.2353 40.6994 63.1258 40.56 62.9873C40.4205 62.8488 40.3099 62.6841 40.2344 62.5027C40.1589 62.3212 40.12 62.1267 40.12 61.9301V28.7501ZM49.69 74.3201C49.6874 74.7242 49.525 75.1108 49.2384 75.3956C48.9517 75.6803 48.5641 75.8401 48.16 75.8401H28.73C28.5375 75.8415 28.3465 75.8047 28.1682 75.7319C27.9899 75.6591 27.8278 75.5518 27.6912 75.4161C27.5545 75.2804 27.4461 75.119 27.3721 74.9412C27.2981 74.7634 27.26 74.5727 27.26 74.3801V28.7201C27.2627 28.332 27.4187 27.9607 27.6941 27.6872C27.9695 27.4136 28.3419 27.2601 28.73 27.2601H34.45C34.6426 27.2588 34.8335 27.2956 35.0118 27.3684C35.1901 27.4412 35.3522 27.5485 35.4889 27.6842C35.6255 27.8199 35.7339 27.9813 35.8079 28.1591C35.8819 28.3369 35.92 28.5276 35.92 28.7201V67.2401H48.16C48.5641 67.2401 48.9517 67.4 49.2384 67.6847C49.525 67.9695 49.6874 68.3561 49.69 68.7601V74.3201ZM77.21 74.3901C77.21 74.5814 77.1722 74.7708 77.0987 74.9473C77.0252 75.1239 76.9175 75.2842 76.7818 75.419C76.6461 75.5538 76.4851 75.6604 76.308 75.7326C76.1309 75.8049 75.9413 75.8415 75.75 75.8401H57C56.6092 75.8401 56.2343 75.6856 55.957 75.4102C55.6798 75.1348 55.5227 74.7609 55.52 74.3701V68.7001C55.5213 68.5071 55.5607 68.3162 55.6357 68.1383C55.7108 67.9605 55.8202 67.7992 55.9576 67.6636C56.0951 67.528 56.2579 67.4209 56.4367 67.3482C56.6156 67.2755 56.807 67.2388 57 67.2401H68.55V35.8601H54.78C54.3839 35.8601 54.0039 35.7035 53.7229 35.4243C53.4419 35.1452 53.2827 34.7662 53.28 34.3701V28.7601C53.28 28.3623 53.4381 27.9808 53.7194 27.6995C54.0007 27.4182 54.3822 27.2601 54.78 27.2601H75.78C75.9713 27.2588 76.1609 27.2954 76.338 27.3676C76.5151 27.4399 76.6761 27.5465 76.8118 27.6813C76.9475 27.8161 77.0552 27.9764 77.1287 28.1529C77.2022 28.3295 77.24 28.5189 77.24 28.7101L77.21 74.3901Z" fill="white"/>
<path d="M70.4894 87.3901L70.4395 100.39" stroke="white" stroke-width="7" stroke-linecap="round" stroke-linejoin="round"/>
<path d="M58.3703 87.3701L58.3203 100.37" stroke="white" stroke-width="7" stroke-linecap="round" stroke-linejoin="round"/>
<path d="M46.2502 87.3398L46.2002 100.34" stroke="white" stroke-width="7" stroke-linecap="round" stroke-linejoin="round"/>
<path d="M34.1201 87.3101L34.0801 100.31" stroke="white" stroke-width="7" stroke-linecap="round" stroke-linejoin="round"/>
<path d="M86.6201 34.1499L99.6201 34.2399" stroke="white" stroke-width="7" stroke-linecap="round" stroke-linejoin="round"/>
<path d="M86.5605 46.27L99.5605 46.36" stroke="white" stroke-width="7" stroke-linecap="round" stroke-linejoin="round"/>
<path d="M86.5098 58.3901L99.5098 58.4801" stroke="white" stroke-width="7" stroke-linecap="round" stroke-linejoin="round"/>
<path d="M86.46 70.51L99.46 70.61" stroke="white" stroke-width="7" stroke-linecap="round" stroke-linejoin="round"/>
<path d="M70.4101 4.08008L70.3701 17.0801" stroke="white" stroke-width="7" stroke-linecap="round" stroke-linejoin="round"/>
<path d="M58.2902 4.05005L58.2402 17.05" stroke="white" stroke-width="7" stroke-linecap="round" stroke-linejoin="round"/>
<path d="M46.1701 4.03003L46.1201 17.03" stroke="white" stroke-width="7" stroke-linecap="round" stroke-linejoin="round"/>
<path d="M34.05 4L34 17" stroke="white" stroke-width="7" stroke-linecap="round" stroke-linejoin="round"/>
<path d="M4.08008 34L17.0801 34.04" stroke="white" stroke-width="7" stroke-linecap="round" stroke-linejoin="round"/>
<path d="M4.0498 46.1201L17.0498 46.1601" stroke="white" stroke-width="7" stroke-linecap="round" stroke-linejoin="round"/>
<path d="M4.03027 58.24L17.0303 58.28" stroke="white" stroke-width="7" stroke-linecap="round" stroke-linejoin="round"/>
<path d="M4 70.3601L17 70.4101" stroke="white" stroke-width="7" stroke-linecap="round" stroke-linejoin="round"/>
<path d="M112.832 73H113.882L121.382 37.3H120.282L112.832 73ZM126.776 37.3L125.626 42.5H126.726L127.876 37.3H126.776ZM120.376 73L125.876 47.3H124.776L119.326 73H120.376ZM131.42 47.3L125.92 73H126.92L129.47 61.15C129.804 59.55 130.27 57.95 130.87 56.35C131.47 54.7167 132.254 53.2667 133.22 52C134.187 50.7333 135.354 49.7 136.72 48.9C138.12 48.1 139.77 47.7 141.67 47.7C143.57 47.7 145.12 48.2 146.32 49.2C147.554 50.2 148.187 51.7 148.22 53.7C148.22 54.3333 148.154 54.9667 148.02 55.6C147.887 56.2333 147.754 56.8667 147.62 57.5L144.37 73H145.42L148.62 57.75C148.754 57.0833 148.887 56.4167 149.02 55.75C149.154 55.05 149.22 54.3667 149.22 53.7C149.22 51.4 148.52 49.6667 147.12 48.5C145.72 47.3 143.904 46.7 141.67 46.7C139.17 46.7 137.104 47.3167 135.47 48.55C133.837 49.75 132.437 51.4 131.27 53.5L131.17 53.4L131.82 50.5L132.47 47.3H131.42ZM153.62 62.9L159.92 58.55L170.12 73H171.47L160.77 58L176.07 47.3H174.37L153.97 61.45L159.17 37.3H158.12L150.42 73H151.47L153.62 62.9ZM195.687 59.35H175.587C175.887 57.75 176.354 56.25 176.987 54.85C177.654 53.45 178.487 52.2167 179.487 51.15C180.487 50.0833 181.67 49.25 183.037 48.65C184.404 48.0167 185.937 47.7 187.637 47.7C189.037 47.7 190.254 47.95 191.287 48.45C192.32 48.9167 193.187 49.5667 193.887 50.4C194.587 51.2 195.104 52.15 195.437 53.25C195.77 54.35 195.937 55.5 195.937 56.7C195.937 57.2 195.92 57.65 195.887 58.05C195.854 58.45 195.787 58.8833 195.687 59.35ZM175.387 60.35H196.737C196.804 59.65 196.854 59.0333 196.887 58.5C196.92 57.9333 196.937 57.3333 196.937 56.7C196.937 55.3 196.737 54 196.337 52.8C195.937 51.5667 195.354 50.5 194.587 49.6C193.82 48.7 192.854 48 191.687 47.5C190.52 46.9667 189.17 46.7 187.637 46.7C185.404 46.7 183.437 47.1833 181.737 48.15C180.07 49.0833 178.67 50.3333 177.537 51.9C176.437 53.4333 175.604 55.1833 175.037 57.15C174.504 59.0833 174.237 61.05 174.237 63.05C174.237 64.5167 174.42 65.9 174.787 67.2C175.187 68.4667 175.787 69.5833 176.587 70.55C177.387 71.4833 178.387 72.2167 179.587 72.75C180.787 73.2833 182.187 73.55 183.787 73.55C186.92 73.55 189.437 72.7833 191.337 71.25C193.27 69.7167 194.62 67.4833 195.387 64.55H194.337C193.57 67.35 192.287 69.4 190.487 70.7C188.687 71.9667 186.437 72.6 183.737 72.6C182.937 72.6 182.037 72.4833 181.037 72.25C180.07 71.9833 179.154 71.5167 178.287 70.85C177.42 70.15 176.687 69.1833 176.087 67.95C175.52 66.7167 175.237 65.1 175.237 63.1C175.237 62 175.287 61.0833 175.387 60.35ZM218.637 69.2L217.837 73H218.887L226.587 37.3H225.537L222.437 51.55L221.837 54.8H221.737C221.737 52.2 220.904 50.2 219.237 48.8C217.604 47.4 215.487 46.7 212.887 46.7C210.754 46.7 208.837 47.25 207.137 48.35C205.47 49.4167 204.054 50.8 202.887 52.5C201.72 54.1667 200.837 56.0167 200.237 58.05C199.637 60.05 199.337 61.9833 199.337 63.85C199.337 66.85 200.12 69.2167 201.687 70.95C203.254 72.6833 205.537 73.55 208.537 73.55C209.904 73.55 211.137 73.3667 212.237 73C213.37 72.6 214.387 72.0667 215.287 71.4C216.187 70.7 216.97 69.8833 217.637 68.95C218.304 68.0167 218.87 67.0167 219.337 65.95L219.437 66.05L218.637 69.2ZM221.037 56.2C221.004 58 220.72 59.8667 220.187 61.8C219.654 63.7333 218.854 65.5 217.787 67.1C216.754 68.7 215.454 70.0167 213.887 71.05C212.354 72.0833 210.554 72.6 208.487 72.6C207.154 72.6 205.97 72.3833 204.937 71.95C203.904 71.5167 203.054 70.9167 202.387 70.15C201.72 69.35 201.204 68.4167 200.837 67.35C200.504 66.2833 200.337 65.1167 200.337 63.85C200.337 62.0833 200.604 60.25 201.137 58.35C201.67 56.45 202.47 54.7167 203.537 53.15C204.604 51.55 205.92 50.25 207.487 49.25C209.054 48.2167 210.854 47.7 212.887 47.7C215.587 47.7 217.62 48.4667 218.987 50C220.354 51.5333 221.037 53.6 221.037 56.2ZM233.243 37.3L225.743 73H233.593L236.843 57.6H251.293L248.043 73H255.943L263.493 37.3H255.593L252.693 51H238.243L241.143 37.3H233.243ZM296.103 58.05L300.453 37.3H292.603L288.153 58.45C287.853 59.7833 287.52 61 287.153 62.1C286.82 63.2 286.336 64.1333 285.703 64.9C285.103 65.6333 284.303 66.2167 283.303 66.65C282.303 67.05 281.003 67.25 279.403 67.25C278.036 67.25 276.92 67.0833 276.053 66.75C275.186 66.4167 274.503 66.0167 274.003 65.55C273.503 65.05 273.153 64.5167 272.953 63.95C272.786 63.3833 272.703 62.8833 272.703 62.45C272.703 62.15 272.72 61.8167 272.753 61.45C272.82 61.05 272.886 60.6333 272.953 60.2C273.053 59.7667 273.136 59.3667 273.203 59C273.303 58.6 273.386 58.25 273.453 57.95L277.803 37.3H269.953L265.603 57.95C265.436 58.8167 265.27 59.7 265.103 60.6C264.936 61.4667 264.853 62.35 264.853 63.25C264.853 65.2167 265.253 66.8833 266.053 68.25C266.886 69.5833 267.953 70.6667 269.253 71.5C270.586 72.3 272.086 72.8833 273.753 73.25C275.453 73.6167 277.17 73.8 278.903 73.8C281.67 73.8 284.02 73.4667 285.953 72.8C287.886 72.1 289.52 71.1 290.853 69.8C292.186 68.4667 293.253 66.8167 294.053 64.85C294.886 62.8833 295.57 60.6167 296.103 58.05ZM320.814 55.35H325.064C324.964 52.3167 324.047 50.1 322.314 48.7C320.614 47.2667 318.297 46.55 315.364 46.55C313.064 46.55 311.014 47 309.214 47.9C307.447 48.7667 305.947 49.95 304.714 51.45C303.514 52.9167 302.597 54.6 301.964 56.5C301.364 58.4 301.064 60.3833 301.064 62.45C301.064 65.9833 301.947 68.7167 303.714 70.65C305.514 72.5833 308.18 73.55 311.714 73.55C314.747 73.55 317.28 72.7833 319.314 71.25C321.347 69.7167 322.747 67.4833 323.514 64.55H319.264C318.664 66.15 317.714 67.4333 316.414 68.4C315.114 69.3667 313.547 69.85 311.714 69.85C310.514 69.85 309.497 69.65 308.664 69.25C307.864 68.85 307.214 68.3167 306.714 67.65C306.214 66.9833 305.847 66.2 305.614 65.3C305.414 64.4 305.314 63.45 305.314 62.45C305.314 61.05 305.53 59.6333 305.964 58.2C306.397 56.7333 307.03 55.4167 307.864 54.25C308.73 53.0833 309.78 52.1333 311.014 51.4C312.28 50.6667 313.73 50.3 315.364 50.3C317.064 50.3 318.397 50.75 319.364 51.65C320.33 52.5167 320.814 53.75 320.814 55.35ZM329.269 61.35H348.719C348.786 60.9833 348.869 60.5 348.969 59.9C349.069 59.3 349.119 58.6667 349.119 58C349.119 54.3667 348.236 51.55 346.469 49.55C344.736 47.55 341.969 46.55 338.169 46.55C336.402 46.55 334.702 46.95 333.069 47.75C331.469 48.55 330.052 49.6833 328.819 51.15C327.619 52.6167 326.652 54.3833 325.919 56.45C325.219 58.4833 324.869 60.7333 324.869 63.2C324.869 64.3333 325.036 65.5167 325.369 66.75C325.702 67.95 326.286 69.0667 327.119 70.1C327.952 71.1 329.069 71.9333 330.469 72.6C331.902 73.2333 333.686 73.55 335.819 73.55C337.219 73.55 338.552 73.3667 339.819 73C341.086 72.6333 342.236 72.1 343.269 71.4C344.302 70.6667 345.186 69.7667 345.919 68.7C346.652 67.6 347.186 66.3333 347.519 64.9H343.269C342.669 66.5 341.752 67.7333 340.519 68.6C339.286 69.4333 337.719 69.85 335.819 69.85C334.952 69.85 334.119 69.7167 333.319 69.45C332.519 69.15 331.802 68.75 331.169 68.25C330.536 67.7167 330.036 67.0667 329.669 66.3C329.302 65.5 329.119 64.6 329.119 63.6C329.119 62.8333 329.169 62.0833 329.269 61.35ZM344.869 57.6H329.869C330.169 56.6 330.569 55.6667 331.069 54.8C331.569 53.9 332.186 53.1167 332.919 52.45C333.652 51.7833 334.502 51.2667 335.469 50.9C336.469 50.5 337.586 50.3 338.819 50.3C339.986 50.3 340.969 50.5167 341.769 50.95C342.569 51.35 343.202 51.9 343.669 52.6C344.169 53.2667 344.502 54.05 344.669 54.95C344.869 55.8167 344.936 56.7 344.869 57.6ZM353.925 47.15L348.525 73H352.725L355.725 58.7C355.991 57.6667 356.341 56.6833 356.775 55.75C357.208 54.7833 357.808 53.9667 358.575 53.3C359.375 52.4333 360.341 51.7167 361.475 51.15C362.641 50.5833 363.808 50.3 364.975 50.3C366.241 50.3 367.308 50.6 368.175 51.2C369.041 51.7667 369.475 52.6667 369.475 53.9C369.475 54.1333 369.441 54.4333 369.375 54.8C369.341 55.1333 369.291 55.5 369.225 55.9C369.158 56.2667 369.091 56.6333 369.025 57C368.958 57.3333 368.908 57.6333 368.875 57.9L365.575 73H369.825L372.975 58.25C373.208 57.25 373.391 56.3 373.525 55.4C373.658 54.5 373.725 53.7667 373.725 53.2C373.725 50.9 373.125 49.2167 371.925 48.15C370.758 47.0833 368.958 46.55 366.525 46.55C364.725 46.55 363.008 46.9333 361.375 47.7C359.741 48.4333 358.391 49.55 357.325 51.05H357.225L358.025 47.15H353.925ZM396.958 69.25L401.608 47.15H397.608L396.808 51.9H396.708V51.8C396.508 51 396.141 50.2833 395.608 49.65C395.108 48.9833 394.474 48.4333 393.708 48C392.974 47.5333 392.158 47.1833 391.258 46.95C390.391 46.6833 389.474 46.55 388.508 46.55C386.408 46.55 384.524 47.0333 382.858 48C381.191 48.9333 379.774 50.1667 378.608 51.7C377.474 53.2 376.591 54.9 375.958 56.8C375.358 58.7 375.058 60.6 375.058 62.5C375.058 64.0667 375.258 65.5 375.658 66.8C376.091 68.1 376.708 69.2333 377.508 70.2C378.308 71.1333 379.308 71.8667 380.508 72.4C381.741 72.9 383.158 73.15 384.758 73.15C386.391 73.15 387.908 72.85 389.308 72.25C390.708 71.65 391.874 70.65 392.808 69.25L392.908 69.35C392.574 70.6167 392.208 71.8667 391.808 73.1C391.441 74.3667 390.924 75.4833 390.258 76.45C389.591 77.4167 388.724 78.2 387.658 78.8C386.624 79.4 385.291 79.7 383.658 79.7C382.858 79.7 382.074 79.6333 381.308 79.5C380.541 79.4 379.858 79.1833 379.258 78.85C378.691 78.55 378.208 78.1167 377.808 77.55C377.441 77.0167 377.224 76.3167 377.158 75.45H372.958C372.991 76.8833 373.308 78.1 373.908 79.1C374.474 80.1333 375.224 80.9667 376.158 81.6C377.091 82.2333 378.158 82.7 379.358 83C380.591 83.3 381.874 83.45 383.208 83.45C386.008 83.45 388.391 82.9 390.358 81.8C392.324 80.7 393.858 78.85 394.958 76.25C395.324 75.35 395.674 74.2833 396.008 73.05C396.341 71.85 396.658 70.5833 396.958 69.25ZM379.308 62.5C379.308 61.3 379.508 60 379.908 58.6C380.308 57.1667 380.891 55.85 381.658 54.65C382.424 53.4167 383.374 52.3833 384.508 51.55C385.641 50.7167 386.958 50.3 388.458 50.3C390.691 50.3 392.341 50.9167 393.408 52.15C394.508 53.3833 395.058 55.0167 395.058 57.05C395.058 58.35 394.858 59.7333 394.458 61.2C394.091 62.6333 393.524 63.9667 392.758 65.2C391.991 66.4333 391.008 67.45 389.808 68.25C388.641 69.05 387.258 69.45 385.658 69.45C384.591 69.45 383.658 69.2667 382.858 68.9C382.058 68.5 381.391 67.9833 380.858 67.35C380.358 66.7167 379.974 65.9833 379.708 65.15C379.441 64.3167 379.308 63.4333 379.308 62.5Z" fill="white"/>
<path d="M112.832 73L111.853 72.7957L111.602 74H112.832V73ZM113.882 73V74H114.694L114.861 73.2056L113.882 73ZM121.382 37.3L122.361 37.5056L122.614 36.3H121.382V37.3ZM120.282 37.3V36.3H119.469L119.303 37.0957L120.282 37.3ZM112.832 74H113.882V72H112.832V74ZM114.861 73.2056L122.361 37.5056L120.403 37.0944L112.903 72.7944L114.861 73.2056ZM121.382 36.3H120.282V38.3H121.382V36.3ZM119.303 37.0957L111.853 72.7957L113.811 73.2043L121.261 37.5043L119.303 37.0957ZM126.776 37.3V36.3H125.973L125.8 37.0841L126.776 37.3ZM125.626 42.5L124.65 42.2841L124.381 43.5H125.626V42.5ZM126.726 42.5V43.5H127.529L127.703 42.7159L126.726 42.5ZM127.876 37.3L128.853 37.5159L129.121 36.3H127.876V37.3ZM120.376 73V74H121.185L121.354 73.2093L120.376 73ZM125.876 47.3L126.854 47.5093L127.113 46.3H125.876V47.3ZM124.776 47.3V46.3H123.966L123.798 47.0926L124.776 47.3ZM119.326 73L118.348 72.7926L118.092 74H119.326V73ZM125.8 37.0841L124.65 42.2841L126.603 42.7159L127.753 37.5159L125.8 37.0841ZM125.626 43.5H126.726V41.5H125.626V43.5ZM127.703 42.7159L128.853 37.5159L126.9 37.0841L125.75 42.2841L127.703 42.7159ZM127.876 36.3H126.776V38.3H127.876V36.3ZM121.354 73.2093L126.854 47.5093L124.898 47.0907L119.398 72.7907L121.354 73.2093ZM125.876 46.3H124.776V48.3H125.876V46.3ZM123.798 47.0926L118.348 72.7926L120.304 73.2074L125.754 47.5074L123.798 47.0926ZM119.326 74H120.376V72H119.326V74ZM131.42 47.3V46.3H130.612L130.442 47.0907L131.42 47.3ZM125.92 73L124.942 72.7907L124.684 74H125.92V73ZM126.92 73V74H127.728L127.898 73.2104L126.92 73ZM129.47 61.15L130.448 61.3604L130.449 61.354L129.47 61.15ZM130.87 56.35L131.807 56.7011L131.809 56.6948L130.87 56.35ZM133.22 52L134.015 52.6067L134.015 52.6067L133.22 52ZM136.72 48.9L136.224 48.0317L136.215 48.037L136.72 48.9ZM146.32 49.2L145.68 49.9683L145.691 49.9768L146.32 49.2ZM148.22 53.7H149.22V53.6917L149.22 53.6833L148.22 53.7ZM147.62 57.5L146.642 57.294L146.642 57.2948L147.62 57.5ZM144.37 73L143.392 72.7948L143.139 74H144.37V73ZM145.42 73V74H146.232L146.399 73.2054L145.42 73ZM148.62 57.75L149.599 57.9554L149.601 57.9461L148.62 57.75ZM149.02 55.75L150.001 55.9461L150.003 55.9371L149.02 55.75ZM147.12 48.5L146.469 49.2593L146.48 49.2682L147.12 48.5ZM135.47 48.55L136.062 49.356L136.073 49.348L135.47 48.55ZM131.27 53.5L130.563 54.2071L131.501 55.1445L132.144 53.9856L131.27 53.5ZM131.17 53.4L130.195 53.1813L130.074 53.7181L130.463 54.1071L131.17 53.4ZM131.82 50.5L132.796 50.7187L132.798 50.7089L132.8 50.6991L131.82 50.5ZM132.47 47.3L133.45 47.4991L133.694 46.3H132.47V47.3ZM130.442 47.0907L124.942 72.7907L126.898 73.2093L132.398 47.5093L130.442 47.0907ZM125.92 74H126.92V72H125.92V74ZM127.898 73.2104L130.448 61.3604L128.493 60.9396L125.943 72.7896L127.898 73.2104ZM130.449 61.354C130.772 59.8062 131.224 58.2554 131.807 56.7011L129.934 55.9989C129.317 57.6446 128.836 59.2938 128.491 60.946L130.449 61.354ZM131.809 56.6948C132.378 55.1469 133.115 53.7868 134.015 52.6067L132.425 51.3933C131.393 52.7466 130.563 54.2865 129.932 56.0052L131.809 56.6948ZM134.015 52.6067C134.903 51.4428 135.972 50.4968 137.225 49.763L136.215 48.037C134.735 48.9032 133.471 50.0238 132.425 51.3933L134.015 52.6067ZM137.216 49.7682C138.44 49.0689 139.913 48.7 141.67 48.7V46.7C139.627 46.7 137.8 47.1311 136.224 48.0318L137.216 49.7682ZM141.67 48.7C143.389 48.7 144.696 49.1485 145.68 49.9682L146.96 48.4318C145.544 47.2515 143.752 46.7 141.67 46.7V48.7ZM145.691 49.9768C146.637 50.7438 147.191 51.929 147.22 53.7167L149.22 53.6833C149.183 51.471 148.471 49.6562 146.95 48.4232L145.691 49.9768ZM147.22 53.7C147.22 54.2626 147.161 54.8269 147.042 55.394L148.999 55.806C149.146 55.1064 149.22 54.4041 149.22 53.7H147.22ZM147.042 55.394C146.908 56.0273 146.775 56.6607 146.642 57.294L148.599 57.706C148.732 57.0727 148.866 56.4393 148.999 55.806L147.042 55.394ZM146.642 57.2948L143.392 72.7948L145.349 73.2052L148.599 57.7052L146.642 57.2948ZM144.37 74H145.42V72H144.37V74ZM146.399 73.2054L149.599 57.9554L147.642 57.5446L144.442 72.7946L146.399 73.2054ZM149.601 57.9461C149.621 57.8473 149.681 57.5449 149.701 57.4461C149.721 57.3473 149.781 57.0449 149.801 56.9461C149.809 56.9044 149.818 56.8628 149.826 56.8211C149.834 56.7794 149.843 56.7378 149.851 56.6961C149.859 56.6544 149.868 56.6128 149.876 56.5711C149.884 56.5294 149.893 56.4878 149.901 56.4461C149.909 56.4044 149.918 56.3628 149.926 56.3211C149.934 56.2794 149.943 56.2378 149.951 56.1961C149.959 56.1544 149.968 56.1128 149.976 56.0711C149.984 56.0294 149.993 55.9878 150.001 55.9461L148.04 55.5539C148.006 55.7204 147.973 55.8874 147.94 56.0539C147.906 56.2204 147.873 56.3874 147.84 56.5539C147.831 56.5956 147.823 56.6372 147.815 56.6789C147.806 56.7206 147.798 56.7622 147.79 56.8039C147.782 56.8409 147.772 56.8918 147.765 56.9289C147.757 56.9659 147.747 57.0168 147.74 57.0539C147.734 57.0847 147.721 57.148 147.715 57.1789C147.709 57.2097 147.696 57.273 147.69 57.3039C147.684 57.3347 147.671 57.398 147.665 57.4289C147.659 57.4597 147.646 57.523 147.64 57.5539L149.601 57.9461ZM150.003 55.9371C150.147 55.1796 150.22 54.4336 150.22 53.7H148.22C148.22 54.2997 148.16 54.9204 148.038 55.5629L150.003 55.9371ZM150.22 53.7C150.22 51.1876 149.446 49.1366 147.76 47.7318L146.48 49.2682C147.594 50.1968 148.22 51.6124 148.22 53.7H150.22ZM147.771 47.7407C146.154 46.3543 144.09 45.7 141.67 45.7V47.7C143.718 47.7 145.287 48.2457 146.47 49.2593L147.771 47.7407ZM141.67 45.7C139.002 45.7 136.71 46.3607 134.868 47.752L136.073 49.348C137.497 48.2727 139.338 47.7 141.67 47.7V45.7ZM134.878 47.7441C133.109 49.0437 131.62 50.8116 130.396 53.0144L132.144 53.9856C133.254 51.9884 134.565 50.4563 136.062 49.3559L134.878 47.7441ZM131.977 52.7929L131.877 52.6929L130.463 54.1071L130.563 54.2071L131.977 52.7929ZM132.146 53.6187L132.796 50.7187L130.845 50.2813L130.195 53.1813L132.146 53.6187ZM132.8 50.6991L133.45 47.4991L131.49 47.1009L130.84 50.3009L132.8 50.6991ZM132.47 46.3H131.42V48.3H132.47V46.3ZM153.62 62.9L153.052 62.0771L152.725 62.303L152.642 62.6918L153.62 62.9ZM159.92 58.55L160.737 57.9733L160.167 57.1648L159.352 57.7271L159.92 58.55ZM170.12 73L169.303 73.5767L169.602 74H170.12V73ZM171.47 73V74H173.412L172.284 72.4193L171.47 73ZM160.77 58L160.197 57.1805L159.37 57.759L159.956 58.5807L160.77 58ZM176.07 47.3L176.643 48.1195L179.245 46.3H176.07V47.3ZM174.37 47.3V46.3H174.057L173.8 46.4783L174.37 47.3ZM153.97 61.45L152.993 61.2395L152.46 63.7148L154.54 62.2717L153.97 61.45ZM159.17 37.3L160.148 37.5105L160.409 36.3H159.17V37.3ZM158.12 37.3V36.3H157.313L157.143 37.0892L158.12 37.3ZM150.42 73L149.443 72.7892L149.182 74H150.42V73ZM151.47 73V74H152.28L152.448 73.2082L151.47 73ZM154.189 63.7229L160.489 59.3729L159.352 57.7271L153.052 62.0771L154.189 63.7229ZM159.103 59.1267L169.303 73.5767L170.937 72.4233L160.737 57.9733L159.103 59.1267ZM170.12 74H171.47V72H170.12V74ZM172.284 72.4193L161.584 57.4193L159.956 58.5807L170.656 73.5807L172.284 72.4193ZM161.343 58.8195L176.643 48.1195L175.497 46.4805L160.197 57.1805L161.343 58.8195ZM176.07 46.3H174.37V48.3H176.07V46.3ZM173.8 46.4783L153.4 60.6283L154.54 62.2717L174.94 48.1217L173.8 46.4783ZM154.948 61.6605L160.148 37.5105L158.193 37.0895L152.993 61.2395L154.948 61.6605ZM159.17 36.3H158.12V38.3H159.17V36.3ZM157.143 37.0892L149.443 72.7892L151.398 73.2108L159.098 37.5108L157.143 37.0892ZM150.42 74H151.47V72H150.42V74ZM152.448 73.2082L154.598 63.1082L152.642 62.6918L150.492 72.7918L152.448 73.2082ZM195.687 59.35V60.35H196.496L196.665 59.5595L195.687 59.35ZM175.587 59.35L174.604 59.1657L174.382 60.35H175.587V59.35ZM176.987 54.85L176.084 54.4201L176.08 54.4289L176.076 54.4378L176.987 54.85ZM179.487 51.15L180.217 51.8339L180.217 51.8339L179.487 51.15ZM183.037 48.65L183.439 49.5656L183.448 49.5616L183.458 49.5573L183.037 48.65ZM191.287 48.45L190.852 49.3502L190.863 49.3559L190.876 49.3614L191.287 48.45ZM193.887 50.4L193.121 51.0432L193.128 51.0509L193.135 51.0585L193.887 50.4ZM195.437 53.25L196.394 52.96L196.394 52.96L195.437 53.25ZM195.887 58.05L194.891 57.967L194.891 57.967L195.887 58.05ZM175.387 60.35V59.35H174.514L174.396 60.2149L175.387 60.35ZM196.737 60.35V61.35H197.646L197.733 60.4448L196.737 60.35ZM196.887 58.5L197.885 58.5624L197.885 58.5587L196.887 58.5ZM196.337 52.8L195.386 53.1085L195.388 53.1162L196.337 52.8ZM191.687 47.5L191.271 48.4095L191.282 48.4144L191.293 48.4191L191.687 47.5ZM181.737 48.15L182.226 49.0225L182.231 49.0193L181.737 48.15ZM177.537 51.9L176.727 51.3139L176.725 51.3171L177.537 51.9ZM175.037 57.15L174.076 56.8731L174.073 56.8841L175.037 57.15ZM174.787 67.2L173.825 67.4715L173.829 67.4864L173.834 67.5011L174.787 67.2ZM176.587 70.55L175.817 71.1876L175.822 71.1942L175.828 71.2008L176.587 70.55ZM179.587 72.75L179.993 71.8362L179.993 71.8362L179.587 72.75ZM191.337 71.25L190.716 70.4665L190.709 70.4718L191.337 71.25ZM195.387 64.55L196.355 64.8029L196.682 63.55H195.387V64.55ZM194.337 64.55V63.55H193.574L193.373 64.2859L194.337 64.55ZM190.487 70.7L191.063 71.5179L191.073 71.5107L190.487 70.7ZM181.037 72.25L180.771 73.214L180.79 73.2193L180.81 73.2238L181.037 72.25ZM178.287 70.85L177.659 71.6279L177.668 71.6354L177.677 71.6426L178.287 70.85ZM176.087 67.95L175.178 68.3675L175.183 68.3775L175.188 68.3875L176.087 67.95ZM195.687 58.35H175.587V60.35H195.687V58.35ZM176.57 59.5343C176.856 58.0082 177.3 56.5852 177.898 55.2622L176.076 54.4378C175.408 55.9148 174.918 57.4918 174.604 59.1657L176.57 59.5343ZM177.89 55.2799C178.515 53.9674 179.291 52.8209 180.217 51.8339L178.758 50.4661C177.683 51.6124 176.793 52.9326 176.084 54.4201L177.89 55.2799ZM180.217 51.8339C181.122 50.8679 182.194 50.1125 183.439 49.5656L182.635 47.7344C181.147 48.3875 179.852 49.2987 178.758 50.4661L180.217 51.8339ZM183.458 49.5573C184.676 48.9924 186.064 48.7 187.637 48.7V46.7C185.811 46.7 184.131 47.0409 182.617 47.7427L183.458 49.5573ZM187.637 48.7C188.919 48.7 189.981 48.9287 190.852 49.3502L191.723 47.5498C190.527 46.9713 189.155 46.7 187.637 46.7V48.7ZM190.876 49.3614C191.778 49.769 192.522 50.3295 193.121 51.0432L194.653 49.7568C193.852 48.8038 192.863 48.0644 191.699 47.5386L190.876 49.3614ZM193.135 51.0585C193.734 51.7431 194.185 52.5648 194.48 53.54L196.394 52.96C196.023 51.7352 195.441 50.6569 194.64 49.7415L193.135 51.0585ZM194.48 53.54C194.784 54.5419 194.937 55.5939 194.937 56.7H196.937C196.937 55.4061 196.757 54.1581 196.394 52.96L194.48 53.54ZM194.937 56.7C194.937 57.1787 194.921 57.6003 194.891 57.967L196.884 58.133C196.92 57.6997 196.937 57.2213 196.937 56.7H194.937ZM194.891 57.967C194.861 58.3174 194.802 58.708 194.709 59.1405L196.665 59.5595C196.772 59.0587 196.846 58.5826 196.884 58.133L194.891 57.967ZM175.387 61.35H196.737V59.35H175.387V61.35ZM197.733 60.4448C197.8 59.7372 197.851 59.1093 197.885 58.5624L195.889 58.4376C195.857 58.9574 195.808 59.5628 195.742 60.2552L197.733 60.4448ZM197.885 58.5587C197.92 57.9704 197.937 57.3507 197.937 56.7H195.937C195.937 57.3159 195.921 57.8962 195.889 58.4413L197.885 58.5587ZM197.937 56.7C197.937 55.2039 197.723 53.796 197.286 52.4838L195.388 53.1162C195.751 54.204 195.937 55.3961 195.937 56.7H197.937ZM197.288 52.4915C196.852 51.1456 196.208 49.9606 195.348 48.9515L193.826 50.2485C194.5 51.0394 195.022 51.9877 195.386 53.1085L197.288 52.4915ZM195.348 48.9515C194.474 47.9257 193.379 47.137 192.081 46.5809L191.293 48.4191C192.329 48.863 193.166 49.4743 193.826 50.2485L195.348 48.9515ZM192.103 46.5905C190.783 45.987 189.286 45.7 187.637 45.7V47.7C189.055 47.7 190.258 47.9463 191.271 48.4095L192.103 46.5905ZM187.637 45.7C185.255 45.7 183.114 46.2168 181.243 47.2807L182.231 49.0193C183.76 48.1498 185.552 47.7 187.637 47.7V45.7ZM181.249 47.2775C179.454 48.2827 177.944 49.631 176.727 51.3139L178.347 52.4861C179.397 51.0356 180.687 49.884 182.226 49.0225L181.249 47.2775ZM176.725 51.3171C175.553 52.9508 174.672 54.806 174.076 56.8731L175.998 57.4269C176.536 55.5607 177.322 53.9159 178.35 52.4829L176.725 51.3171ZM174.073 56.8841C173.516 58.9038 173.237 60.9599 173.237 63.05H175.237C175.237 61.1401 175.492 59.2629 176.001 57.4159L174.073 56.8841ZM173.237 63.05C173.237 64.6006 173.431 66.0759 173.825 67.4715L175.75 66.9285C175.41 65.7241 175.237 64.4327 175.237 63.05H173.237ZM173.834 67.5011C174.27 68.8834 174.93 70.1159 175.817 71.1876L177.358 69.9124C176.644 69.0508 176.104 68.0499 175.741 66.8989L173.834 67.5011ZM175.828 71.2008C176.731 72.2545 177.855 73.0743 179.181 73.6638L179.993 71.8362C178.92 71.359 178.043 70.7121 177.346 69.8992L175.828 71.2008ZM179.181 73.6638C180.534 74.265 182.077 74.55 183.787 74.55V72.55C182.297 72.55 181.041 72.3017 179.993 71.8362L179.181 73.6638ZM183.787 74.55C187.083 74.55 189.842 73.7415 191.965 72.0282L190.709 70.4718C189.032 71.8251 186.758 72.55 183.787 72.55V74.55ZM191.959 72.0335C194.097 70.3371 195.546 67.8969 196.355 64.8029L194.42 64.2971C193.695 67.0697 192.443 69.0962 190.716 70.4665L191.959 72.0335ZM195.387 63.55H194.337V65.55H195.387V63.55ZM193.373 64.2859C192.648 66.9341 191.466 68.7592 189.902 69.8893L191.073 71.5107C193.108 70.0408 194.493 67.7659 195.302 64.8141L193.373 64.2859ZM189.912 69.8822C188.315 71.0057 186.278 71.6 183.737 71.6V73.6C186.596 73.6 189.059 72.9276 191.063 71.5178L189.912 69.8822ZM183.737 71.6C183.032 71.6 182.21 71.4967 181.264 71.2762L180.81 73.2238C181.865 73.4699 182.843 73.6 183.737 73.6V71.6ZM181.303 71.286C180.472 71.0567 179.67 70.6524 178.897 70.0574L177.677 71.6426C178.637 72.3809 179.669 72.91 180.771 73.214L181.303 71.286ZM178.915 70.0721C178.186 69.4831 177.537 68.6437 176.986 67.5125L175.188 68.3875C175.838 69.723 176.655 70.8169 177.659 71.6279L178.915 70.0721ZM176.996 67.5325C176.511 66.477 176.237 65.0184 176.237 63.1H174.237C174.237 65.1816 174.53 66.9563 175.178 68.3675L176.996 67.5325ZM176.237 63.1C176.237 62.0257 176.286 61.1578 176.378 60.4851L174.396 60.2149C174.288 61.0089 174.237 61.9743 174.237 63.1H176.237ZM218.637 69.2L217.668 68.9538L217.663 68.9738L217.659 68.994L218.637 69.2ZM217.837 73L216.859 72.794L216.605 74H217.837V73ZM218.887 73V74H219.694L219.865 73.2108L218.887 73ZM226.587 37.3L227.565 37.5108L227.826 36.3H226.587V37.3ZM225.537 37.3V36.3H224.731L224.56 37.0874L225.537 37.3ZM222.437 51.55L221.46 51.3374L221.457 51.3529L221.454 51.3685L222.437 51.55ZM221.837 54.8V55.8H222.669L222.82 54.9815L221.837 54.8ZM221.737 54.8H220.737V55.8H221.737V54.8ZM219.237 48.8L218.586 49.5593L218.594 49.5657L219.237 48.8ZM207.137 48.35L207.676 49.1923L207.68 49.1896L207.137 48.35ZM202.887 52.5L203.706 53.0735L203.712 53.0658L202.887 52.5ZM200.237 58.05L201.195 58.3373L201.196 58.333L200.237 58.05ZM201.687 70.95L202.429 70.2795L202.429 70.2795L201.687 70.95ZM212.237 73L212.553 73.9487L212.562 73.9459L212.57 73.943L212.237 73ZM215.287 71.4L215.882 72.2036L215.892 72.1966L215.901 72.1894L215.287 71.4ZM217.637 68.95L216.823 68.3688L216.823 68.3688L217.637 68.95ZM219.337 65.95L220.044 65.2429L219.008 64.2069L218.421 65.5492L219.337 65.95ZM219.437 66.05L220.406 66.2962L220.546 65.745L220.144 65.3429L219.437 66.05ZM221.037 56.2L222.037 56.2185L222.037 56.2093V56.2H221.037ZM217.787 67.1L216.955 66.5453L216.951 66.5514L216.947 66.5575L217.787 67.1ZM213.887 71.05L213.336 70.2152L213.328 70.2207L213.887 71.05ZM204.937 71.95L205.324 71.0278L205.324 71.0278L204.937 71.95ZM202.387 70.15L201.619 70.7902L201.626 70.7983L201.633 70.8062L202.387 70.15ZM200.837 67.35L199.883 67.6483L199.887 67.6617L199.891 67.6751L200.837 67.35ZM201.137 58.35L202.1 58.6203L202.1 58.6203L201.137 58.35ZM203.537 53.15L204.364 53.7128L204.369 53.7047L203.537 53.15ZM207.487 49.25L208.025 50.0929L208.031 50.0889L208.038 50.0848L207.487 49.25ZM218.987 50L218.241 50.6654L218.241 50.6654L218.987 50ZM217.659 68.994L216.859 72.794L218.816 73.206L219.616 69.406L217.659 68.994ZM217.837 74H218.887V72H217.837V74ZM219.865 73.2108L227.565 37.5108L225.61 37.0892L217.91 72.7892L219.865 73.2108ZM226.587 36.3H225.537V38.3H226.587V36.3ZM224.56 37.0874L221.46 51.3374L223.414 51.7626L226.514 37.5126L224.56 37.0874ZM221.454 51.3685L220.854 54.6185L222.82 54.9815L223.42 51.7315L221.454 51.3685ZM221.837 53.8H221.737V55.8H221.837V53.8ZM222.737 54.8C222.737 51.968 221.818 49.6616 219.88 48.0343L218.594 49.5657C219.99 50.7384 220.737 52.432 220.737 54.8H222.737ZM219.888 48.0407C218.037 46.4546 215.674 45.7 212.887 45.7V47.7C215.3 47.7 217.17 48.3454 218.586 49.5593L219.888 48.0407ZM212.887 45.7C210.572 45.7 208.465 46.3 206.594 47.5104L207.68 49.1896C209.21 48.2 210.936 47.7 212.887 47.7V45.7ZM206.598 47.5077C204.814 48.6495 203.302 50.1286 202.063 51.9342L203.712 53.0658C204.806 51.4714 206.127 50.1838 207.676 49.1923L206.598 47.5077ZM202.068 51.9265C200.837 53.6855 199.907 55.6343 199.278 57.767L201.196 58.333C201.767 56.399 202.604 54.6478 203.706 53.0735L202.068 51.9265ZM199.279 57.7627C198.655 59.845 198.337 61.8752 198.337 63.85H200.337C200.337 62.0914 200.62 60.255 201.195 58.3373L199.279 57.7627ZM198.337 63.85C198.337 67.0252 199.169 69.6559 200.945 71.6205L202.429 70.2795C201.071 68.7775 200.337 66.6748 200.337 63.85H198.337ZM200.945 71.6205C202.752 73.6196 205.34 74.55 208.537 74.55V72.55C205.734 72.55 203.755 71.7471 202.429 70.2795L200.945 71.6205ZM208.537 74.55C209.993 74.55 211.335 74.3548 212.553 73.9487L211.921 72.0513C210.939 72.3785 209.815 72.55 208.537 72.55V74.55ZM212.57 73.943C213.79 73.5123 214.897 72.9337 215.882 72.2036L214.692 70.5964C213.878 71.1996 212.951 71.6877 211.904 72.057L212.57 73.943ZM215.901 72.1894C216.878 71.4296 217.728 70.5428 218.451 69.5312L216.823 68.3688C216.213 69.2239 215.496 69.9704 214.673 70.6106L215.901 72.1894ZM218.451 69.5312C219.158 68.5406 219.759 67.4801 220.253 66.3508L218.421 65.5492C217.982 66.5533 217.449 67.4927 216.823 68.3688L218.451 69.5312ZM218.63 66.6571L218.73 66.7571L220.144 65.3429L220.044 65.2429L218.63 66.6571ZM218.468 65.8038L217.668 68.9538L219.606 69.4462L220.406 66.2962L218.468 65.8038ZM220.037 56.1815C220.006 57.889 219.737 59.6723 219.223 61.5341L221.151 62.0659C221.704 60.061 222.002 58.111 222.037 56.2185L220.037 56.1815ZM219.223 61.5341C218.717 63.3692 217.96 65.0377 216.955 66.5453L218.619 67.6547C219.747 65.9623 220.591 64.0975 221.151 62.0659L219.223 61.5341ZM216.947 66.5575C215.988 68.0428 214.786 69.2594 213.337 70.2152L214.438 71.8848C216.122 70.774 217.52 69.3572 218.627 67.6425L216.947 66.5575ZM213.328 70.2207C211.979 71.1299 210.379 71.6 208.487 71.6V73.6C210.729 73.6 212.728 73.0367 214.446 71.8793L213.328 70.2207ZM208.487 71.6C207.262 71.6 206.214 71.401 205.324 71.0278L204.55 72.8722C205.727 73.3657 207.046 73.6 208.487 73.6V71.6ZM205.324 71.0278C204.417 70.6476 203.698 70.1333 203.142 69.4938L201.633 70.8062C202.41 71.7 203.39 72.3857 204.55 72.8722L205.324 71.0278ZM203.155 69.5098C202.573 68.8107 202.113 67.9862 201.783 67.0249L199.891 67.6751C200.294 68.8471 200.868 69.8893 201.619 70.7902L203.155 69.5098ZM201.792 67.0517C201.492 66.0935 201.337 65.0288 201.337 63.85H199.337C199.337 65.2045 199.515 66.4732 199.883 67.6483L201.792 67.0517ZM201.337 63.85C201.337 62.1847 201.588 60.4424 202.1 58.6203L200.174 58.0797C199.619 60.0576 199.337 61.982 199.337 63.85H201.337ZM202.1 58.6203C202.605 56.8202 203.36 55.1863 204.364 53.7128L202.711 52.5872C201.58 54.247 200.736 56.0798 200.174 58.0797L202.1 58.6203ZM204.369 53.7047C205.362 52.216 206.579 51.0157 208.025 50.0929L206.949 48.4071C205.261 49.4843 203.846 50.884 202.705 52.5953L204.369 53.7047ZM208.038 50.0848C209.427 49.1682 211.032 48.7 212.887 48.7V46.7C210.675 46.7 208.68 47.2651 206.937 48.4152L208.038 50.0848ZM212.887 48.7C215.397 48.7 217.119 49.4067 218.241 50.6654L219.734 49.3346C218.122 47.5266 215.777 46.7 212.887 46.7V48.7ZM218.241 50.6654C219.404 51.9708 220.037 53.7779 220.037 56.2H222.037C222.037 53.4221 221.303 51.0959 219.734 49.3346L218.241 50.6654ZM233.243 37.3V36.3H232.431L232.264 37.0944L233.243 37.3ZM225.743 73L224.764 72.7944L224.511 74H225.743V73ZM233.593 73V74H234.404L234.571 73.2065L233.593 73ZM236.843 57.6V56.6H236.032L235.864 57.3935L236.843 57.6ZM251.293 57.6L252.271 57.8065L252.526 56.6H251.293V57.6ZM248.043 73L247.064 72.7935L246.81 74H248.043V73ZM255.943 73V74H256.753L256.921 73.2069L255.943 73ZM263.493 37.3L264.471 37.5069L264.726 36.3H263.493V37.3ZM255.593 37.3V36.3H254.782L254.614 37.0929L255.593 37.3ZM252.693 51V52H253.503L253.671 51.2071L252.693 51ZM238.243 51L237.264 50.7929L237.009 52H238.243V51ZM241.143 37.3L242.121 37.5071L242.376 36.3H241.143V37.3ZM232.264 37.0944L224.764 72.7944L226.721 73.2056L234.221 37.5056L232.264 37.0944ZM225.743 74H233.593V72H225.743V74ZM234.571 73.2065L237.821 57.8065L235.864 57.3935L232.614 72.7935L234.571 73.2065ZM236.843 58.6H251.293V56.6H236.843V58.6ZM250.314 57.3935L247.064 72.7935L249.021 73.2065L252.271 57.8065L250.314 57.3935ZM248.043 74H255.943V72H248.043V74ZM256.921 73.2069L264.471 37.5069L262.514 37.0931L254.964 72.7931L256.921 73.2069ZM263.493 36.3H255.593V38.3H263.493V36.3ZM254.614 37.0929L251.714 50.7929L253.671 51.2071L256.571 37.5071L254.614 37.0929ZM252.693 50H238.243V52H252.693V50ZM239.221 51.2071L242.121 37.5071L240.164 37.0929L237.264 50.7929L239.221 51.2071ZM241.143 36.3H233.243V38.3H241.143V36.3ZM296.103 58.05L295.124 57.8448L295.124 57.8466L296.103 58.05ZM300.453 37.3L301.432 37.5052L301.685 36.3H300.453V37.3ZM292.603 37.3V36.3H291.792L291.625 37.0941L292.603 37.3ZM288.153 58.45L289.129 58.6695L289.132 58.6559L288.153 58.45ZM287.153 62.1L286.204 61.7838L286.2 61.7968L286.196 61.81L287.153 62.1ZM285.703 64.9L284.932 64.2631L284.929 64.2668L285.703 64.9ZM283.303 66.65L283.675 67.5785L283.688 67.5732L283.701 67.5676L283.303 66.65ZM276.053 66.75L275.694 67.6833L275.694 67.6833L276.053 66.75ZM274.003 65.55L273.296 66.2571L273.308 66.2693L273.321 66.2811L274.003 65.55ZM272.953 63.95L271.994 64.2322L272.001 64.2577L272.01 64.2828L272.953 63.95ZM272.753 61.45L271.767 61.2856L271.761 61.3224L271.757 61.3595L272.753 61.45ZM272.953 60.2L271.979 59.9751L271.97 60.0113L271.965 60.0479L272.953 60.2ZM273.203 59L272.233 58.7575L272.225 58.7891L272.219 58.8211L273.203 59ZM273.453 57.95L274.429 58.1669L274.432 58.1561L273.453 57.95ZM277.803 37.3L278.782 37.5061L279.036 36.3H277.803V37.3ZM269.953 37.3V36.3H269.142L268.975 37.0939L269.953 37.3ZM265.603 57.95L264.625 57.7439L264.623 57.7525L264.621 57.7612L265.603 57.95ZM265.103 60.6L266.085 60.7889L266.086 60.7821L265.103 60.6ZM266.053 68.25L265.19 68.7552L265.197 68.7677L265.205 68.78L266.053 68.25ZM269.253 71.5L268.713 72.3419L268.726 72.3499L268.739 72.3575L269.253 71.5ZM273.753 73.25L273.538 74.2267L273.542 74.2275L273.753 73.25ZM285.953 72.8L286.279 73.7454L286.286 73.7429L286.294 73.7403L285.953 72.8ZM290.853 69.8L291.551 70.5161L291.56 70.5071L290.853 69.8ZM294.053 64.85L293.132 64.4599L293.13 64.4665L293.127 64.4732L294.053 64.85ZM297.082 58.2552L301.432 37.5052L299.474 37.0948L295.124 57.8448L297.082 58.2552ZM300.453 36.3H292.603V38.3H300.453V36.3ZM291.625 37.0941L287.175 58.2441L289.132 58.6559L293.582 37.5059L291.625 37.0941ZM287.178 58.2305C286.884 59.5367 286.559 60.7205 286.204 61.7838L288.102 62.4162C288.481 61.2795 288.823 60.0299 289.129 58.6695L287.178 58.2305ZM286.196 61.81C285.895 62.8027 285.469 63.6133 284.932 64.2631L286.474 65.5369C287.204 64.6534 287.744 63.5973 288.11 62.39L286.196 61.81ZM284.929 64.2668C284.444 64.8593 283.781 65.3529 282.906 65.7324L283.701 67.5676C284.825 67.0804 285.762 66.4074 286.477 65.5332L284.929 64.2668ZM282.932 65.7215C282.093 66.0572 280.932 66.25 279.403 66.25V68.25C281.074 68.25 282.514 68.0428 283.675 67.5785L282.932 65.7215ZM279.403 66.25C278.107 66.25 277.124 66.0903 276.412 65.8167L275.694 67.6833C276.716 68.0763 277.966 68.25 279.403 68.25V66.25ZM276.412 65.8167C275.625 65.5139 275.065 65.1728 274.685 64.8189L273.321 66.2811C273.942 66.8605 274.748 67.3194 275.694 67.6833L276.412 65.8167ZM274.71 64.8429C274.297 64.43 274.038 64.0203 273.896 63.6172L272.01 64.2828C272.268 65.0131 272.709 65.67 273.296 66.2571L274.71 64.8429ZM273.912 63.6678C273.764 63.162 273.703 62.7603 273.703 62.45H271.703C271.703 63.0064 271.809 63.6047 271.994 64.2322L273.912 63.6678ZM273.703 62.45C273.703 62.1861 273.718 61.8836 273.749 61.5405L271.757 61.3595C271.722 61.7498 271.703 62.1139 271.703 62.45H273.703ZM273.74 61.6144C273.807 61.21 273.874 60.7892 273.941 60.3521L271.965 60.0479C271.899 60.4775 271.833 60.89 271.767 61.2856L273.74 61.6144ZM273.928 60.4249C274.03 59.9791 274.117 59.5635 274.187 59.1789L272.219 58.8211C272.156 59.1698 272.076 59.5542 271.979 59.9751L273.928 60.4249ZM274.173 59.2425C274.275 58.8367 274.36 58.4778 274.429 58.1669L272.477 57.7331C272.413 58.0222 272.332 58.3633 272.233 58.7575L274.173 59.2425ZM274.432 58.1561L278.782 37.5061L276.825 37.0939L272.475 57.7439L274.432 58.1561ZM277.803 36.3H269.953V38.3H277.803V36.3ZM268.975 37.0939L264.625 57.7439L266.582 58.1561L270.932 37.5061L268.975 37.0939ZM264.621 57.7612C264.454 58.6302 264.287 59.5157 264.12 60.4179L266.086 60.7821C266.253 59.8843 266.419 59.0032 266.585 58.1388L264.621 57.7612ZM264.121 60.4112C263.942 61.3413 263.853 62.2879 263.853 63.25H265.853C265.853 62.4121 265.931 61.5921 266.085 60.7888L264.121 60.4112ZM263.853 63.25C263.853 65.3517 264.281 67.2023 265.19 68.7552L266.916 67.7448C266.225 66.5644 265.853 65.0817 265.853 63.25H263.853ZM265.205 68.78C266.115 70.2365 267.287 71.4272 268.713 72.3419L269.793 70.6581C268.62 69.9061 267.658 68.9302 266.901 67.72L265.205 68.78ZM268.739 72.3575C270.173 73.2183 271.776 73.839 273.538 74.2266L273.968 72.2734C272.397 71.9277 271 71.3817 269.768 70.6425L268.739 72.3575ZM273.542 74.2275C275.311 74.6091 277.099 74.8 278.903 74.8V72.8C277.241 72.8 275.595 72.6243 273.964 72.2725L273.542 74.2275ZM278.903 74.8C281.744 74.8 284.211 74.4584 286.279 73.7454L285.627 71.8546C283.828 72.4749 281.595 72.8 278.903 72.8V74.8ZM286.294 73.7403C288.347 72.9969 290.106 71.9253 291.551 70.516L290.155 69.084C288.934 70.2747 287.426 71.2031 285.613 71.8597L286.294 73.7403ZM291.56 70.5071C292.999 69.0682 294.135 67.3015 294.979 65.2268L293.127 64.4732C292.371 66.3318 291.374 67.8651 290.146 69.0929L291.56 70.5071ZM294.974 65.2401C295.838 63.2016 296.538 60.8703 297.082 58.2534L295.124 57.8466C294.601 60.3631 293.935 62.5651 293.132 64.4599L294.974 65.2401ZM320.814 55.35H319.814V56.35H320.814V55.35ZM325.064 55.35V56.35H326.097L326.063 55.317L325.064 55.35ZM322.314 48.7L321.669 49.4645L321.677 49.4713L321.685 49.4779L322.314 48.7ZM309.214 47.9L309.654 48.7978L309.661 48.7944L309.214 47.9ZM304.714 51.45L303.941 50.8149L303.94 50.8168L304.714 51.45ZM301.964 56.5L301.015 56.1838L301.012 56.1913L301.01 56.1989L301.964 56.5ZM303.714 70.65L302.975 71.3246L302.982 71.3314L303.714 70.65ZM319.314 71.25L318.712 70.4516L318.712 70.4516L319.314 71.25ZM323.514 64.55L324.481 64.8029L324.809 63.55H323.514V64.55ZM319.264 64.55V63.55H318.571L318.327 64.1989L319.264 64.55ZM316.414 68.4L315.817 67.5975L315.817 67.5975L316.414 68.4ZM308.664 69.25L308.216 70.1444L308.224 70.148L308.231 70.1515L308.664 69.25ZM306.714 67.65L307.514 67.05L307.514 67.05L306.714 67.65ZM305.614 65.3L304.637 65.5169L304.641 65.534L304.646 65.551L305.614 65.3ZM305.964 58.2L306.921 58.4894L306.923 58.4833L305.964 58.2ZM307.864 54.25L307.061 53.6537L307.055 53.6612L307.05 53.6688L307.864 54.25ZM311.014 51.4L310.513 50.5345L310.503 50.5405L311.014 51.4ZM319.364 51.65L318.682 52.3819L318.689 52.3883L318.696 52.3946L319.364 51.65ZM320.814 56.35H325.064V54.35H320.814V56.35ZM326.063 55.317C325.957 52.1037 324.975 49.5642 322.942 47.9221L321.685 49.4779C323.119 50.6358 323.97 52.5296 324.064 55.3829L326.063 55.317ZM322.958 47.9355C321.027 46.3073 318.457 45.55 315.364 45.55V47.55C318.137 47.55 320.2 48.226 321.669 49.4645L322.958 47.9355ZM315.364 45.55C312.931 45.55 310.724 46.0268 308.766 47.0056L309.661 48.7944C311.303 47.9732 313.197 47.55 315.364 47.55V45.55ZM308.773 47.0022C306.88 47.9309 305.266 49.2031 303.941 50.8149L305.486 52.0851C306.628 50.6969 308.014 49.6025 309.654 48.7978L308.773 47.0022ZM303.94 50.8168C302.658 52.3829 301.685 54.175 301.015 56.1838L302.912 56.8162C303.509 55.025 304.369 53.4505 305.488 52.0832L303.94 50.8168ZM301.01 56.1989C300.378 58.1999 300.064 60.285 300.064 62.45H302.064C302.064 60.4817 302.349 58.6001 302.917 56.8011L301.01 56.1989ZM300.064 62.45C300.064 66.1445 300.989 69.1507 302.975 71.3246L304.452 69.9754C302.905 68.2827 302.064 65.8222 302.064 62.45H300.064ZM302.982 71.3314C305.029 73.5299 308.001 74.55 311.714 74.55V72.55C308.36 72.55 305.999 71.6368 304.446 69.9686L302.982 71.3314ZM311.714 74.55C314.921 74.55 317.678 73.7362 319.916 72.0484L318.712 70.4516C316.883 71.8305 314.573 72.55 311.714 72.55V74.55ZM319.916 72.0484C322.161 70.355 323.669 67.9109 324.481 64.8029L322.546 64.2971C321.825 67.0557 320.533 69.0783 318.712 70.4516L319.916 72.0484ZM323.514 63.55H319.264V65.55H323.514V63.55ZM318.327 64.1989C317.791 65.6293 316.954 66.752 315.817 67.5975L317.01 69.2025C318.473 68.1147 319.536 66.6707 320.2 64.9011L318.327 64.1989ZM315.817 67.5975C314.712 68.4193 313.362 68.85 311.714 68.85V70.85C313.732 70.85 315.516 70.314 317.01 69.2025L315.817 67.5975ZM311.714 68.85C310.62 68.85 309.761 68.6673 309.096 68.3485L308.231 70.1515C309.233 70.6327 310.407 70.85 311.714 70.85V68.85ZM309.111 68.3556C308.439 68.0198 307.914 67.5835 307.514 67.05L305.914 68.25C306.514 69.0498 307.288 69.6802 308.216 70.1444L309.111 68.3556ZM307.514 67.05C307.1 66.499 306.786 65.8374 306.582 65.049L304.646 65.551C304.908 66.5626 305.327 67.4676 305.914 68.25L307.514 67.05ZM306.59 65.0831C306.407 64.26 306.314 63.3831 306.314 62.45H304.314C304.314 63.5169 304.42 64.54 304.637 65.5169L306.59 65.0831ZM306.314 62.45C306.314 61.1546 306.514 59.8354 306.921 58.4894L305.006 57.9106C304.547 59.4313 304.314 60.9454 304.314 62.45H306.314ZM306.923 58.4833C307.327 57.1162 307.913 55.9015 308.677 54.8312L307.05 53.6688C306.148 54.9318 305.467 56.3504 305.005 57.9167L306.923 58.4833ZM308.666 54.8463C309.455 53.7844 310.407 52.9244 311.525 52.2595L310.503 50.5405C309.154 51.3423 308.005 52.3823 307.061 53.6537L308.666 54.8463ZM311.515 52.2654C312.612 51.6301 313.885 51.3 315.364 51.3V49.3C313.575 49.3 311.949 49.7032 310.513 50.5346L311.515 52.2654ZM315.364 51.3C316.886 51.3 317.949 51.6993 318.682 52.3819L320.045 50.9181C318.845 49.8007 317.241 49.3 315.364 49.3V51.3ZM318.696 52.3946C319.403 53.0286 319.814 53.9628 319.814 55.35H321.814C321.814 53.5372 321.257 52.0047 320.031 50.9054L318.696 52.3946ZM329.269 61.35V60.35H328.396L328.278 61.2149L329.269 61.35ZM348.719 61.35V62.35H349.554L349.703 61.5289L348.719 61.35ZM348.969 59.9L347.983 59.7356L347.983 59.7356L348.969 59.9ZM346.469 49.55L345.713 50.205L345.72 50.212L346.469 49.55ZM333.069 47.75L332.629 46.8519L332.622 46.8556L333.069 47.75ZM328.819 51.15L328.054 50.5063L328.045 50.5168L328.819 51.15ZM325.919 56.45L324.977 56.1156L324.974 56.1245L325.919 56.45ZM325.369 66.75L324.404 67.0109L324.406 67.0176L325.369 66.75ZM327.119 70.1L326.341 70.7278L326.346 70.734L326.351 70.7402L327.119 70.1ZM330.469 72.6L330.039 73.5029L330.052 73.509L330.065 73.5147L330.469 72.6ZM339.819 73L339.541 72.0394L339.819 73ZM343.269 71.4L343.83 72.2279L343.839 72.2218L343.848 72.2155L343.269 71.4ZM345.919 68.7L346.743 69.2665L346.747 69.2606L346.751 69.2547L345.919 68.7ZM347.519 64.9L348.493 65.1265L348.778 63.9H347.519V64.9ZM343.269 64.9V63.9H342.576L342.333 64.5489L343.269 64.9ZM340.519 68.6L341.079 69.4286L341.087 69.4235L341.094 69.4182L340.519 68.6ZM333.319 69.45L332.968 70.3863L332.985 70.3928L333.003 70.3987L333.319 69.45ZM331.169 68.25L330.525 69.0149L330.537 69.0251L330.549 69.0349L331.169 68.25ZM329.669 66.3L328.76 66.7167L328.763 66.7241L328.767 66.7315L329.669 66.3ZM344.869 57.6V58.6H345.798L345.866 57.6739L344.869 57.6ZM329.869 57.6L328.911 57.3127L328.525 58.6H329.869V57.6ZM331.069 54.8L331.935 55.2997L331.939 55.2927L331.943 55.2856L331.069 54.8ZM332.919 52.45L333.592 53.1899L333.592 53.1899L332.919 52.45ZM335.469 50.9L335.824 51.835L335.832 51.8318L335.841 51.8285L335.469 50.9ZM341.769 50.95L341.293 51.8293L341.307 51.8371L341.322 51.8444L341.769 50.95ZM343.669 52.6L342.837 53.1547L342.852 53.1778L342.869 53.2L343.669 52.6ZM344.669 54.95L343.686 55.1321L343.69 55.1536L343.695 55.1749L344.669 54.95ZM329.269 62.35H348.719V60.35H329.269V62.35ZM349.703 61.5289C349.771 61.1554 349.855 60.6666 349.956 60.0644L347.983 59.7356C347.883 60.3334 347.801 60.8113 347.735 61.1711L349.703 61.5289ZM349.956 60.0644C350.065 59.4052 350.119 58.7166 350.119 58H348.119C348.119 58.6168 348.073 59.1948 347.983 59.7356L349.956 60.0644ZM350.119 58C350.119 54.2116 349.197 51.1278 347.219 48.888L345.72 50.212C347.274 51.9722 348.119 54.5217 348.119 58H350.119ZM347.225 48.8951C345.23 46.5938 342.129 45.55 338.169 45.55V47.55C341.809 47.55 344.241 48.5062 345.713 50.2049L347.225 48.8951ZM338.169 45.55C336.245 45.55 334.395 45.9869 332.629 46.8519L333.509 48.6481C335.01 47.9131 336.56 47.55 338.169 47.55V45.55ZM332.622 46.8556C330.891 47.7209 329.369 48.9428 328.054 50.5064L329.585 51.7936C330.736 50.4238 332.047 49.3791 333.516 48.6444L332.622 46.8556ZM328.045 50.5168C326.762 52.0854 325.743 53.9571 324.977 56.1156L326.862 56.7844C327.562 54.8095 328.477 53.1479 329.593 51.7832L328.045 50.5168ZM324.974 56.1245C324.233 58.2767 323.869 60.6386 323.869 63.2H325.869C325.869 60.8281 326.206 58.69 326.865 56.7755L324.974 56.1245ZM323.869 63.2C323.869 64.4318 324.05 65.7031 324.404 67.0109L326.335 66.4891C326.021 65.3302 325.869 64.2349 325.869 63.2H323.869ZM324.406 67.0176C324.778 68.3576 325.428 69.5954 326.341 70.7278L327.898 69.4722C327.144 68.538 326.627 67.5424 326.333 66.4824L324.406 67.0176ZM326.351 70.7402C327.293 71.8703 328.533 72.7858 330.039 73.5029L330.899 71.6971C329.605 71.0809 328.612 70.3297 327.887 69.4598L326.351 70.7402ZM330.065 73.5147C331.663 74.2207 333.594 74.55 335.819 74.55V72.55C333.778 72.55 332.142 72.246 330.873 71.6853L330.065 73.5147ZM335.819 74.55C337.307 74.55 338.735 74.355 340.097 73.9606L339.541 72.0394C338.37 72.3784 337.131 72.55 335.819 72.55V74.55ZM340.097 73.9606C341.459 73.5664 342.705 72.9899 343.83 72.2279L342.708 70.5721C341.766 71.2101 340.713 71.7002 339.541 72.0394L340.097 73.9606ZM343.848 72.2155C344.979 71.4127 345.945 70.4278 346.743 69.2665L345.095 68.1335C344.427 69.1055 343.626 69.9206 342.69 70.5845L343.848 72.2155ZM346.751 69.2547C347.558 68.044 348.136 66.6637 348.493 65.1265L346.545 64.6735C346.236 66.003 345.747 67.156 345.087 68.1453L346.751 69.2547ZM347.519 63.9H343.269V65.9H347.519V63.9ZM342.333 64.5489C341.794 65.9864 340.991 67.0459 339.944 67.7818L341.094 69.4182C342.514 68.4207 343.545 67.0136 344.205 65.2511L342.333 64.5489ZM339.959 67.7714C338.932 68.4658 337.575 68.85 335.819 68.85V70.85C337.864 70.85 339.64 70.4009 341.079 69.4286L339.959 67.7714ZM335.819 68.85C335.057 68.85 334.331 68.7331 333.635 68.5013L333.003 70.3987C333.908 70.7003 334.848 70.85 335.819 70.85V68.85ZM333.67 68.5137C332.961 68.2478 332.336 67.8974 331.789 67.4651L330.549 69.0349C331.269 69.6026 332.077 70.0522 332.968 70.3863L333.67 68.5137ZM331.813 67.4851C331.292 67.0458 330.878 66.5105 330.571 65.8685L328.767 66.7315C329.193 67.6229 329.78 68.3876 330.525 69.0149L331.813 67.4851ZM330.578 65.8833C330.279 65.2308 330.119 64.4758 330.119 63.6H328.119C328.119 64.7242 328.326 65.7692 328.76 66.7167L330.578 65.8833ZM330.119 63.6C330.119 62.8769 330.166 62.1721 330.26 61.4851L328.278 61.2149C328.172 61.9946 328.119 62.7898 328.119 63.6H330.119ZM344.869 56.6H329.869V58.6H344.869V56.6ZM330.827 57.8873C331.106 56.9582 331.476 56.0965 331.935 55.2997L330.203 54.3003C329.663 55.2368 329.233 56.2418 328.911 57.3127L330.827 57.8873ZM331.943 55.2856C332.393 54.4771 332.942 53.7806 333.592 53.1899L332.246 51.7101C331.429 52.4528 330.746 53.3229 330.195 54.3144L331.943 55.2856ZM333.592 53.1899C334.228 52.6113 334.969 52.1591 335.824 51.835L335.114 49.965C334.036 50.3742 333.077 50.9554 332.246 51.7101L333.592 53.1899ZM335.841 51.8285C336.707 51.4821 337.695 51.3 338.819 51.3V49.3C337.477 49.3 336.232 49.5179 335.098 49.9715L335.841 51.8285ZM338.819 51.3C339.865 51.3 340.675 51.4944 341.293 51.8293L342.245 50.0707C341.264 49.5389 340.106 49.3 338.819 49.3V51.3ZM341.322 51.8444C341.976 52.1717 342.473 52.6087 342.837 53.1547L344.501 52.0453C343.932 51.1913 343.162 50.5283 342.216 50.0556L341.322 51.8444ZM342.869 53.2C343.268 53.7316 343.544 54.3685 343.686 55.1321L345.652 54.7679C345.46 53.7315 345.07 52.8017 344.469 52L342.869 53.2ZM343.695 55.1749C343.872 55.9422 343.931 56.7248 343.872 57.5261L345.866 57.6739C345.94 56.6752 345.866 55.6911 345.644 54.7251L343.695 55.1749ZM353.925 47.15V46.15H353.112L352.946 46.9455L353.925 47.15ZM348.525 73L347.546 72.7955L347.294 74H348.525V73ZM352.725 73V74H353.537L353.703 73.2053L352.725 73ZM355.725 58.7L354.756 58.4501L354.751 58.4723L354.746 58.4947L355.725 58.7ZM356.775 55.75L357.682 56.1711L357.687 56.1591L356.775 55.75ZM358.575 53.3L359.231 54.0546L359.272 54.0186L359.309 53.9783L358.575 53.3ZM361.475 51.15L361.038 50.2504L361.027 50.2556L361.475 51.15ZM368.175 51.2L367.605 52.0222L367.616 52.0297L367.627 52.037L368.175 51.2ZM369.375 54.8L368.391 54.6211L368.384 54.6606L368.38 54.7005L369.375 54.8ZM369.225 55.9L370.208 56.0789L370.21 56.0717L370.211 56.0644L369.225 55.9ZM369.025 57L370.005 57.1961L370.007 57.1875L370.008 57.1789L369.025 57ZM368.875 57.9L369.852 58.1135L369.861 58.0691L369.867 58.024L368.875 57.9ZM365.575 73L364.598 72.7865L364.332 74H365.575V73ZM369.825 73V74H370.634L370.803 73.2088L369.825 73ZM372.975 58.25L372.001 58.0228L371.999 58.0319L371.997 58.0411L372.975 58.25ZM373.525 55.4L374.514 55.5465L374.514 55.5465L373.525 55.4ZM371.925 48.15L371.25 48.8881L371.26 48.8974L371.925 48.15ZM361.375 47.7L361.784 48.6123L361.792 48.6088L361.8 48.6052L361.375 47.7ZM357.325 51.05V52.05H357.841L358.14 51.6295L357.325 51.05ZM357.225 51.05L356.245 50.8491L355.999 52.05H357.225V51.05ZM358.025 47.15L359.004 47.3509L359.251 46.15H358.025V47.15ZM352.946 46.9455L347.546 72.7955L349.503 73.2045L354.903 47.3545L352.946 46.9455ZM348.525 74H352.725V72H348.525V74ZM353.703 73.2053L356.703 58.9053L354.746 58.4947L351.746 72.7947L353.703 73.2053ZM356.693 58.9499C356.945 57.9732 357.275 57.0473 357.682 56.1711L355.868 55.3289C355.408 56.3193 355.038 57.3601 354.756 58.4501L356.693 58.9499ZM357.687 56.1591C358.064 55.319 358.578 54.622 359.231 54.0546L357.918 52.5454C357.038 53.3114 356.352 54.2477 355.862 55.3409L357.687 56.1591ZM359.309 53.9783C360.021 53.2069 360.889 52.5611 361.922 52.0444L361.027 50.2556C359.794 50.8723 358.728 51.6598 357.84 52.6217L359.309 53.9783ZM361.912 52.0495C362.957 51.5415 363.976 51.3 364.975 51.3V49.3C363.64 49.3 362.325 49.6252 361.038 50.2505L361.912 52.0495ZM364.975 51.3C366.08 51.3 366.937 51.5597 367.605 52.0222L368.744 50.3778C367.679 49.6403 366.403 49.3 364.975 49.3V51.3ZM367.627 52.037C368.154 52.3815 368.475 52.9296 368.475 53.9H370.475C370.475 52.4037 369.928 51.1518 368.722 50.363L367.627 52.037ZM368.475 53.9C368.475 54.0488 368.452 54.283 368.391 54.6211L370.358 54.9789C370.43 54.5836 370.475 54.2179 370.475 53.9H368.475ZM368.38 54.7005C368.349 55.0082 368.302 55.3528 368.238 55.7356L370.211 56.0644C370.281 55.6472 370.334 55.2585 370.37 54.8995L368.38 54.7005ZM368.241 55.7211C368.174 56.0878 368.107 56.4544 368.041 56.8211L370.008 57.1789C370.075 56.8122 370.142 56.4456 370.208 56.0789L368.241 55.7211ZM368.044 56.8039C367.974 57.1552 367.919 57.4798 367.882 57.776L369.867 58.024C369.897 57.7869 369.942 57.5115 370.005 57.1961L368.044 56.8039ZM367.898 57.6865L364.598 72.7865L366.552 73.2135L369.852 58.1135L367.898 57.6865ZM365.575 74H369.825V72H365.575V74ZM370.803 73.2088L373.953 58.4588L371.997 58.0411L368.847 72.7912L370.803 73.2088ZM373.948 58.4772C374.187 57.4539 374.376 56.4768 374.514 55.5465L372.535 55.2534C372.407 56.1232 372.229 57.0461 372.001 58.0228L373.948 58.4772ZM374.514 55.5465C374.651 54.6233 374.725 53.8359 374.725 53.2H372.725C372.725 53.6974 372.665 54.3767 372.535 55.2535L374.514 55.5465ZM374.725 53.2C374.725 50.741 374.082 48.7295 372.589 47.4026L371.26 48.8974C372.168 49.7039 372.725 51.059 372.725 53.2H374.725ZM372.599 47.412C371.171 46.1059 369.078 45.55 366.525 45.55V47.55C368.838 47.55 370.345 48.0608 371.25 48.888L372.599 47.412ZM366.525 45.55C364.577 45.55 362.716 45.9658 360.95 46.7948L361.8 48.6052C363.3 47.9008 364.872 47.55 366.525 47.55V45.55ZM360.965 46.7877C359.165 47.5961 357.676 48.8297 356.51 50.4705L358.14 51.6295C359.106 50.2703 360.318 49.2706 361.784 48.6123L360.965 46.7877ZM357.325 50.05H357.225V52.05H357.325V50.05ZM358.204 51.2509L359.004 47.3509L357.045 46.9491L356.245 50.8491L358.204 51.2509ZM358.025 46.15H353.925V48.15H358.025V46.15ZM396.958 69.25L397.934 69.4695L397.936 69.4559L396.958 69.25ZM401.608 47.15L402.586 47.3559L402.84 46.15H401.608V47.15ZM397.608 47.15V46.15H396.762L396.622 46.9839L397.608 47.15ZM396.808 51.9V52.9H397.653L397.794 52.0661L396.808 51.9ZM396.708 51.9H395.708V52.9H396.708V51.9ZM396.708 51.8H397.708V51.6769L397.678 51.5575L396.708 51.8ZM395.608 49.65L394.808 50.25L394.825 50.2726L394.843 50.2941L395.608 49.65ZM393.708 48L393.171 48.8437L393.193 48.8577L393.216 48.8706L393.708 48ZM391.258 46.95L390.964 47.9058L390.985 47.9124L391.007 47.918L391.258 46.95ZM382.858 48L383.346 48.8725L383.353 48.8688L383.36 48.865L382.858 48ZM378.608 51.7L377.812 51.0945L377.81 51.0972L378.608 51.7ZM375.958 56.8L375.009 56.4838L375.007 56.4913L375.004 56.4989L375.958 56.8ZM375.658 66.8L374.702 67.0941L374.705 67.1052L374.709 67.1162L375.658 66.8ZM377.508 70.2L376.737 70.8376L376.743 70.8442L376.749 70.8508L377.508 70.2ZM380.508 72.4L380.102 73.3138L380.117 73.3205L380.132 73.3267L380.508 72.4ZM389.308 72.25L389.702 73.1691L389.702 73.1691L389.308 72.25ZM392.808 69.25L393.515 68.5429L392.652 67.6804L391.976 68.6953L392.808 69.25ZM392.908 69.35L393.875 69.6045L394.021 69.049L393.615 68.6429L392.908 69.35ZM391.808 73.1L390.857 72.7915L390.852 72.8066L390.847 72.8219L391.808 73.1ZM390.258 76.45L391.081 77.0177L391.081 77.0177L390.258 76.45ZM387.658 78.8L387.168 77.9283L387.156 77.9352L387.658 78.8ZM381.308 79.5L381.479 78.5148L381.458 78.5111L381.437 78.5084L381.308 79.5ZM379.258 78.85L379.743 77.9758L379.735 77.9709L379.726 77.9662L379.258 78.85ZM377.808 77.55L376.984 78.1166L376.991 78.1267L377.808 77.55ZM377.158 75.45L378.155 75.3733L378.084 74.45H377.158V75.45ZM372.958 75.45V74.45H371.934L371.958 75.4732L372.958 75.45ZM373.908 79.1L374.785 78.6192L374.775 78.6021L374.765 78.5855L373.908 79.1ZM376.158 81.6L376.719 80.7725L376.719 80.7725L376.158 81.6ZM379.358 83L379.115 83.9702L379.121 83.9717L379.358 83ZM390.358 81.8L390.846 82.6728L390.846 82.6728L390.358 81.8ZM394.958 76.25L395.879 76.6397L395.884 76.6273L394.958 76.25ZM396.008 73.05L395.044 72.7823L395.042 72.7891L396.008 73.05ZM379.908 58.6L380.869 58.8747L380.871 58.8688L379.908 58.6ZM381.658 54.65L382.501 55.1884L382.507 55.1779L381.658 54.65ZM384.508 51.55L383.915 50.7443L383.915 50.7443L384.508 51.55ZM393.408 52.15L392.651 52.8042L392.656 52.8099L392.662 52.8156L393.408 52.15ZM394.458 61.2L393.493 60.9369L393.491 60.9445L393.489 60.9522L394.458 61.2ZM389.808 68.25L389.253 67.4179L389.242 67.4253L389.808 68.25ZM382.858 68.9L382.411 69.7944L382.426 69.802L382.441 69.8091L382.858 68.9ZM380.858 67.35L380.073 67.9696L380.083 67.982L380.093 67.9941L380.858 67.35ZM379.708 65.15L378.755 65.4548L379.708 65.15ZM397.936 69.4559L402.586 47.3559L400.629 46.9441L395.979 69.0441L397.936 69.4559ZM401.608 46.15H397.608V48.15H401.608V46.15ZM396.622 46.9839L395.822 51.7339L397.794 52.0661L398.594 47.3161L396.622 46.9839ZM396.808 50.9H396.708V52.9H396.808V50.9ZM397.708 51.9V51.8H395.708V51.9H397.708ZM397.678 51.5575C397.441 50.6091 397.004 49.7552 396.373 49.0059L394.843 50.2941C395.279 50.8115 395.575 51.3909 395.738 52.0425L397.678 51.5575ZM396.408 49.05C395.82 48.2666 395.08 47.6268 394.2 47.1294L393.216 48.8706C393.869 49.2399 394.395 49.7 394.808 50.25L396.408 49.05ZM394.245 47.1563C393.417 46.6298 392.503 46.2397 391.509 45.982L391.007 47.918C391.813 48.1269 392.532 48.4369 393.171 48.8437L394.245 47.1563ZM391.552 45.9942C390.584 45.6964 389.568 45.55 388.508 45.55V47.55C389.381 47.55 390.198 47.6703 390.964 47.9058L391.552 45.9942ZM388.508 45.55C386.248 45.55 384.189 46.072 382.356 47.135L383.36 48.865C384.86 47.9946 386.568 47.55 388.508 47.55V45.55ZM382.369 47.1275C380.582 48.1284 379.061 49.453 377.812 51.0945L379.404 52.3055C380.488 50.8803 381.8 49.7383 383.346 48.8725L382.369 47.1275ZM377.81 51.0972C376.607 52.6894 375.675 54.4874 375.009 56.4838L376.906 57.1162C377.508 55.3126 378.342 53.7106 379.406 52.3028L377.81 51.0972ZM375.004 56.4989C374.375 58.4915 374.058 60.493 374.058 62.5H376.058C376.058 60.707 376.341 58.9085 376.911 57.1011L375.004 56.4989ZM374.058 62.5C374.058 64.1515 374.269 65.6856 374.702 67.0941L376.614 66.5059C376.247 65.3144 376.058 63.9818 376.058 62.5H374.058ZM374.709 67.1162C375.178 68.5226 375.852 69.7673 376.737 70.8376L378.278 69.5624C377.564 68.6994 377.004 67.6774 376.606 66.4838L374.709 67.1162ZM376.749 70.8508C377.652 71.9045 378.775 72.7243 380.102 73.3138L380.914 71.4862C379.84 71.009 378.964 70.3621 378.267 69.5492L376.749 70.8508ZM380.132 73.3267C381.506 73.8838 383.054 74.15 384.758 74.15V72.15C383.261 72.15 381.976 71.9162 380.884 71.4733L380.132 73.3267ZM384.758 74.15C386.517 74.15 388.168 73.8263 389.702 73.1691L388.914 71.3309C387.647 71.8737 386.266 72.15 384.758 72.15V74.15ZM389.702 73.1691C391.298 72.4848 392.611 71.3486 393.64 69.8047L391.976 68.6953C391.138 69.9514 390.117 70.8152 388.914 71.3309L389.702 73.1691ZM392.101 69.9571L392.201 70.0571L393.615 68.6429L393.515 68.5429L392.101 69.9571ZM391.941 69.0955C391.612 70.3442 391.251 71.5762 390.857 72.7915L392.759 73.4085C393.165 72.1571 393.537 70.8891 393.875 69.6045L391.941 69.0955ZM390.847 72.8219C390.507 73.9979 390.033 75.0143 389.435 75.8823L391.081 77.0177C391.816 75.9524 392.375 74.7355 392.768 73.3781L390.847 72.8219ZM389.435 75.8823C388.858 76.7183 388.107 77.3998 387.168 77.9284L388.148 79.6716C389.342 79.0002 390.324 78.115 391.081 77.0177L389.435 75.8823ZM387.156 77.9352C386.321 78.42 385.177 78.7 383.658 78.7V80.7C385.405 80.7 386.928 80.38 388.16 79.6648L387.156 77.9352ZM383.658 78.7C382.914 78.7 382.188 78.638 381.479 78.5148L381.136 80.4852C381.961 80.6287 382.802 80.7 383.658 80.7V78.7ZM381.437 78.5084C380.78 78.4227 380.22 78.2406 379.743 77.9758L378.772 79.7242C379.496 80.126 380.302 80.3773 381.178 80.4916L381.437 78.5084ZM379.726 77.9662C379.309 77.7456 378.942 77.4223 378.625 76.9733L376.991 78.1267C377.474 78.811 378.073 79.3544 378.79 79.7338L379.726 77.9662ZM378.632 76.9835C378.394 76.6368 378.212 76.1224 378.155 75.3733L376.161 75.5267C376.236 76.5109 376.489 77.3965 376.984 78.1165L378.632 76.9835ZM377.158 74.45H372.958V76.45H377.158V74.45ZM371.958 75.4732C371.995 77.0404 372.343 78.4353 373.05 79.6145L374.765 78.5855C374.273 77.7647 373.988 76.7262 373.958 75.4268L371.958 75.4732ZM373.031 79.5808C373.67 80.7466 374.526 81.7012 375.596 82.4275L376.719 80.7725C375.923 80.2322 375.279 79.52 374.785 78.6192L373.031 79.5808ZM375.596 82.4275C376.636 83.1328 377.812 83.6444 379.115 83.9701L379.6 82.0299C378.503 81.7556 377.547 81.3339 376.719 80.7725L375.596 82.4275ZM379.121 83.9717C380.436 84.2914 381.799 84.45 383.208 84.45V82.45C381.95 82.45 380.746 82.3086 379.594 82.0283L379.121 83.9717ZM383.208 84.45C386.138 84.45 388.698 83.8741 390.846 82.6728L389.87 80.9272C388.084 81.9259 385.878 82.45 383.208 82.45V84.45ZM390.846 82.6728C393.051 81.4393 394.714 79.3916 395.879 76.6396L394.037 75.8604C393.001 78.3084 391.598 79.9607 389.87 80.9272L390.846 82.6728ZM395.884 76.6273C396.27 75.6797 396.632 74.5723 396.973 73.3109L395.042 72.7891C394.717 73.9944 394.379 75.0203 394.032 75.8727L395.884 76.6273ZM396.971 73.3176C397.309 72.1003 397.63 70.8175 397.933 69.4695L395.982 69.0305C395.685 70.3492 395.373 71.5997 395.044 72.7824L396.971 73.3176ZM380.308 62.5C380.308 61.4102 380.49 60.2037 380.869 58.8747L378.946 58.3253C378.526 59.7963 378.308 61.1898 378.308 62.5H380.308ZM380.871 58.8688C381.246 57.5265 381.789 56.3013 382.501 55.1884L380.815 54.1116C379.993 55.3987 379.37 56.8068 378.945 58.3312L380.871 58.8688ZM382.507 55.1779C383.209 54.0491 384.073 53.1112 385.1 52.3556L383.915 50.7443C382.676 51.6555 381.64 52.7842 380.809 54.1221L382.507 55.1779ZM385.1 52.3557C386.05 51.6572 387.156 51.3 388.458 51.3V49.3C386.76 49.3 385.232 49.7761 383.915 50.7443L385.1 52.3557ZM388.458 51.3C390.513 51.3 391.838 51.8632 392.651 52.8042L394.164 51.4958C392.845 49.9701 390.869 49.3 388.458 49.3V51.3ZM392.662 52.8156C393.563 53.826 394.058 55.2031 394.058 57.05H396.058C396.058 54.8302 395.453 52.9407 394.154 51.4844L392.662 52.8156ZM394.058 57.05C394.058 58.2476 393.874 59.5419 393.493 60.9369L395.423 61.4631C395.842 59.9248 396.058 58.4524 396.058 57.05H394.058ZM393.489 60.9522C393.147 62.2885 392.62 63.5271 391.909 64.6721L393.607 65.7279C394.429 64.4062 395.035 62.9782 395.427 61.4478L393.489 60.9522ZM391.909 64.6721C391.217 65.785 390.333 66.6977 389.253 67.4179L390.363 69.0821C391.682 68.2023 392.766 67.0816 393.607 65.7279L391.909 64.6721ZM389.242 67.4253C388.263 68.0965 387.083 68.45 385.658 68.45V70.45C387.432 70.45 389.019 70.0035 390.373 69.0747L389.242 67.4253ZM385.658 68.45C384.705 68.45 383.919 68.2864 383.274 67.9909L382.441 69.8091C383.397 70.247 384.477 70.45 385.658 70.45V68.45ZM383.305 68.0056C382.617 67.6616 382.061 67.2269 381.623 66.7059L380.093 67.9941C380.721 68.7398 381.499 69.3384 382.411 69.7944L383.305 68.0056ZM381.643 66.7304C381.223 66.1987 380.893 65.5741 380.66 64.8452L378.755 65.4548C379.055 66.3926 379.493 67.2346 380.073 67.9696L381.643 66.7304ZM380.66 64.8452C380.427 64.1168 380.308 63.3368 380.308 62.5H378.308C378.308 63.5299 378.455 64.5166 378.755 65.4548L380.66 64.8452Z" fill="white"/>
</svg>
